<svg xmlns="http://www.w3.org/2000/svg" width="20" height="20" viewBox="0 0 20 20">
    <g transform="translate(60.422 -168.75)">
        <circle data-name="Ellipse 50" cx="10" cy="10" r="10" transform="translate(-60.422 168.75)" style="fill:#6cc3c1"/>
        <path data-name="Path 203" d="M-45.513 178.959c-1.289-.459-2.484-1.081-3.481.377a2.634 2.634 0 0 0-.3-1.865 4.814 4.814 0 0 1-.381-2.039 7.712 7.712 0 0 1 .237-1.535c.024-.108.091-.245-.017-.318-.144-.1-.232.056-.321.139a2.445 2.445 0 0 0-.522.636 7.3 7.3 0 0 0-.826 2.78c-.046.541-.1.585-.63.425a4.189 4.189 0 0 1-2.966-3.409c-.033-.148.022-.329-.173-.451a3.94 3.94 0 0 0-.273 1.032 6.443 6.443 0 0 0 .936 5.162 4.093 4.093 0 0 0 3.35 2.035c.074 0 .168-.015.191.127a4.8 4.8 0 0 1-1.334.753c-.476.232-1.015.274-1.511.462.068.156.188.175.29.214a6.573 6.573 0 0 0 1.791.437c2.285.195 3.907-.5 4.455-2.706a5.618 5.618 0 0 1 .2-.6c.24-.665.377-1.405 1.285-1.656z" style="fill:#fff"/>
    </g>
</svg>
