<svg id="barcode" xmlns="http://www.w3.org/2000/svg" width="145" height="42.906" viewBox="0 0 145 42.906">
    <defs>
        <style>
            .cls-1{fill:#231f20}
        </style>
    </defs>
    <path id="Rectangle_303" data-name="Rectangle 303" class="cls-1" d="M0 0h2.151v42.906H0z"/>
    <path id="Rectangle_304" data-name="Rectangle 304" class="cls-1" transform="translate(10.057)" d="M0 0h1.1v42.906H0z"/>
    <path id="Rectangle_305" data-name="Rectangle 305" class="cls-1" transform="translate(64.891)" d="M0 0h2.276v42.906H0z"/>
    <path id="Rectangle_306" data-name="Rectangle 306" class="cls-1" transform="translate(79.239)" d="M0 0h2.276v42.906H0z"/>
    <path id="Rectangle_307" data-name="Rectangle 307" class="cls-1" transform="translate(13.617)" d="M0 0h.825v42.906H0z"/>
    <path id="Rectangle_308" data-name="Rectangle 308" class="cls-1" transform="translate(61.398)" d="M0 0h.825v42.906H0z"/>
    <path id="Rectangle_309" data-name="Rectangle 309" class="cls-1" transform="translate(97.756)" d="M0 0h.825v42.906H0z"/>
    <path id="Rectangle_310" data-name="Rectangle 310" class="cls-1" transform="translate(138.819)" d="M0 0h.825v42.906H0z"/>
    <path id="Rectangle_311" data-name="Rectangle 311" class="cls-1" transform="translate(117.507)" d="M0 0h.825v42.906H0z"/>
    <path id="Rectangle_312" data-name="Rectangle 312" class="cls-1" transform="translate(125.69)" d="M0 0h.98v42.906H0z"/>
    <path id="Rectangle_313" data-name="Rectangle 313" class="cls-1" transform="translate(35.512)" d="M0 0h.825v42.906H0z"/>
    <path id="Rectangle_314" data-name="Rectangle 314" class="cls-1" transform="translate(57.777)" d="M0 0h1.186v42.906H0z"/>
    <path id="Rectangle_315" data-name="Rectangle 315" class="cls-1" transform="translate(5.181)" d="M0 0h3.617v42.906H0z"/>
    <path id="Rectangle_316" data-name="Rectangle 316" class="cls-1" transform="translate(46.53)" d="M0 0h3.617v42.906H0z"/>
    <path id="Rectangle_317" data-name="Rectangle 317" class="cls-1" transform="translate(52.15)" d="M0 0h4.204v42.906H0z"/>
    <path id="Rectangle_318" data-name="Rectangle 318" class="cls-1" transform="translate(111.567)" d="M0 0h4.693v42.906H0z"/>
    <path id="Rectangle_319" data-name="Rectangle 319" class="cls-1" transform="translate(128.918)" d="M0 0h7.039v42.906H0z"/>
    <path id="Rectangle_320" data-name="Rectangle 320" class="cls-1" transform="translate(119.141)" d="M0 0h3.422v42.906H0z"/>
    <path id="Rectangle_321" data-name="Rectangle 321" class="cls-1" transform="translate(69.298)" d="M0 0h6.55v42.906H0z"/>
    <path id="Rectangle_322" data-name="Rectangle 322" class="cls-1" transform="translate(82.746)" d="M0 0h10.95v42.906H0z"/>
    <path id="Rectangle_323" data-name="Rectangle 323" class="cls-1" transform="translate(23.743)" d="M0 0h7.919v42.906H0z"/>
    <path id="Rectangle_324" data-name="Rectangle 324" class="cls-1" transform="translate(17.011)" d="M0 0h2.493v42.906H0z"/>
    <path id="Rectangle_325" data-name="Rectangle 325" class="cls-1" transform="translate(38.971)" d="M0 0h2.493v42.906H0z"/>
    <path id="Rectangle_326" data-name="Rectangle 326" class="cls-1" transform="translate(101.306)" d="M0 0h2.493v42.906H0z"/>
    <path id="Rectangle_327" data-name="Rectangle 327" class="cls-1" transform="translate(142.507)" d="M0 0h2.493v42.906H0z"/>
    <path id="Rectangle_328" data-name="Rectangle 328" class="cls-1" transform="translate(105.378)" d="M0 0h2.493v42.906H0z"/>
</svg>
