<svg xmlns="http://www.w3.org/2000/svg" width="56" height="56" viewBox="0 0 56 56">
  <g id="index_beauty_icon" transform="translate(0.5 0.5)">
    <circle id="Oval" cx="27.5" cy="27.5" r="27.5" fill="none" stroke="#fff" stroke-miterlimit="10" stroke-width="1"/>
    <g id="beauty_icon" transform="translate(14 12)">
      <path id="Fill_1" data-name="Fill 1" d="M7.357,3.679A3.679,3.679,0,1,1,3.679,0,3.679,3.679,0,0,1,7.357,3.679" transform="translate(4.494 1.875)" fill="#fff"/>
      <path id="Fill_1_Copy" data-name="Fill 1 Copy" d="M4.545,2.272A2.272,2.272,0,1,1,2.272,0,2.272,2.272,0,0,1,4.545,2.272" transform="translate(3.906 0)" fill="#fff"/>
      <path id="Fill_3" data-name="Fill 3" d="M7.357,3.679A3.679,3.679,0,1,1,3.679,0,3.679,3.679,0,0,1,7.357,3.679" transform="translate(18.832 20.442)" fill="#fff"/>
      <path id="Fill_5" data-name="Fill 5" d="M6.206,13.307a24.574,24.574,0,0,1-4.28,0c-1.963-.2-1.926,0-1.926,0s.856-8.56,1.926-10.7S4.066-.175,5.35.039s2.14,1.07,2.568,3,.428,3,1.07,3.638,3.852,3.638,3.852,3.638.856.856,0,1.5S8.774,9.883,8.132,9.027A23.054,23.054,0,0,0,5.778,6.673Z" transform="translate(1.151 9.407)" fill="#fff"/>
      <g id="Group_9" data-name="Group 9" transform="translate(0 23.438)">
        <path id="Fill_7" data-name="Fill 7" d="M0,.447V4.941H16.478a9.633,9.633,0,0,0,3.21,1.926,8.283,8.283,0,0,0,5.136.214c2.14-.428,5.136-.856,4.494-2.14s-2.354,0-4.28,0-3.852.214-4.922-.856S18.832.875,15.836.447,11.342-.195,8.988.233s-3.424,1.712-6.634.856C0,.461,0,.447,0,.447" transform="translate(0 0.195)" fill="#fff"/>
      </g>
      <path id="Fill_10" data-name="Fill 10" d="M15.515,1.926H.963A.963.963,0,0,1,.963,0H15.515a.963.963,0,0,1,0,1.926" transform="translate(0 29.429)" fill="#fff"/>
    </g>
  </g>
</svg>
