<svg xmlns="http://www.w3.org/2000/svg" width="26.059" height="28.474" viewBox="0 0 26.059 28.474">
  <path id="ticket_BL" d="M11.486,27h0L10.5,25.924a1.944,1.944,0,0,0,0-2.573,1.567,1.567,0,0,0-2.354,0L6.974,22.067l.039-.044a1.941,1.941,0,0,0-.039-2.572,1.567,1.567,0,0,0-2.354.043L3.446,18.212l.04-.043a1.943,1.943,0,0,0-.04-2.572,1.566,1.566,0,0,0-2.353.044L0,14.446l1.356-1.483L11.861,1.481,13.216,0l1.1,1.2a1.935,1.935,0,0,0,0,2.444,1.606,1.606,0,0,0,1.231.595,1.582,1.582,0,0,0,1.117-.472l1.18,1.29a1.94,1.94,0,0,0,.053,2.509,1.563,1.563,0,0,0,2.295.055l1.18,1.29a1.931,1.931,0,0,0-.316,1.9l1.036,1.051a1.551,1.551,0,0,0,1.628-.381l.987,1.079-.928,1.014L13.27,25.05,11.486,27ZM16.128,8.679h-.007l-3.065.165a.123.123,0,0,0-.09.048l-3.31,4.234a.146.146,0,0,0-.022.14.127.127,0,0,0,.1.087l2.281.287a.127.127,0,0,1,.1.081.147.147,0,0,1-.012.136L9.18,18.4a.143.143,0,0,0-.011.141.131.131,0,0,0,.114.078.118.118,0,0,0,.08-.033L15.238,13.3a.144.144,0,0,0,.042-.14.131.131,0,0,0-.1-.1l-2.632-.57a.131.131,0,0,1-.1-.1.144.144,0,0,1,.043-.14l3.712-3.322a.143.143,0,0,0,.039-.153A.126.126,0,0,0,16.128,8.679Z" transform="translate(0.678 0.741)" fill="#26bec9" stroke="rgba(0,0,0,0)" stroke-miterlimit="10" stroke-width="1"/>
</svg>
