<svg xmlns="http://www.w3.org/2000/svg" width="9.194" height="13.73" viewBox="0 0 9.194 13.73">
  <path id="_12" data-name="12" d="M296.016,67.339l-.3-.4c-.009-.014-1.075-1.569-2.14-3.414a29.953,29.953,0,0,1-1.476-2.855,6.761,6.761,0,0,1-.693-2.436,4.607,4.607,0,0,1,4.6-4.626h0a4.6,4.6,0,0,1,4.6,4.595,6.8,6.8,0,0,1-.7,2.48,29.673,29.673,0,0,1-1.471,2.844c-.925,1.6-1.859,3-2.123,3.39ZM296,54.309a3.9,3.9,0,0,0-3.9,3.9,6.077,6.077,0,0,0,.626,2.167,29.4,29.4,0,0,0,1.449,2.8c.714,1.237,1.435,2.352,1.822,2.936.427-.645,1.127-1.732,1.82-2.934a29.033,29.033,0,0,0,1.444-2.793,6.106,6.106,0,0,0,.635-2.211,3.9,3.9,0,0,0-3.9-3.863Zm0,6.062h0a2.35,2.35,0,0,1,0-4.7h0a2.35,2.35,0,0,1,0,4.7Zm0-4a1.65,1.65,0,0,0,0,3.3h0a1.65,1.65,0,0,0,.007-3.3H296Z" transform="translate(-291.404 -53.609)" fill="#333"/>
</svg>
