<svg xmlns="http://www.w3.org/2000/svg" width="12.433" height="12.704" viewBox="0 0 12.433 12.704">
  <path id="_5" data-name="5" d="M577.823,34.934a1.459,1.459,0,0,0-1.458-1.458H575.5v-.488a1.025,1.025,0,0,0-2.049,0v.488H569.76v-.488a1.024,1.024,0,0,0-2.049,0v.488h-.862a1.459,1.459,0,0,0-1.458,1.458v8.319a1.417,1.417,0,0,0,1.415,1.415h9.6a1.417,1.417,0,0,0,1.415-1.415Zm-3.8-1.945a.458.458,0,0,1,.917,0V34.53a.458.458,0,0,1-.917,0Zm-5.743,0a.458.458,0,0,1,.917,0V34.53a.458.458,0,1,1-.917,0Zm-1.428,1.054h.862v.488a1.024,1.024,0,1,0,2.049,0v-.488h3.695v.488a1.025,1.025,0,0,0,2.049,0v-.488h.862a.892.892,0,0,1,.891.891v1.217h-11.3V34.934A.892.892,0,0,1,566.849,34.042Zm9.559,10.06h-9.6a.85.85,0,0,1-.849-.849V36.717h11.3v6.536A.85.85,0,0,1,576.408,44.1Z" transform="translate(-565.391 -31.964)" fill="#333"/>
</svg>
