<svg xmlns="http://www.w3.org/2000/svg" width="13.726" height="13.726" viewBox="0 0 13.726 13.726">
  <path id="Star" d="M13.415,6.259a1.093,1.093,0,0,0,.259-1.095,1.029,1.029,0,0,0-.826-.727l-3.4-.515A.2.2,0,0,1,9.3,3.806L7.781.6A1.005,1.005,0,0,0,5.945.6L4.426,3.806a.2.2,0,0,1-.154.117l-3.4.515a1.029,1.029,0,0,0-.826.727A1.093,1.093,0,0,0,.31,6.26l2.457,2.5a.22.22,0,0,1,.059.189l-.58,3.529a1.084,1.084,0,0,0,.407,1.045A.981.981,0,0,0,3.73,13.6l3.037-1.666a.2.2,0,0,1,.191,0L9.995,13.6a.986.986,0,0,0,1.078-.082,1.084,1.084,0,0,0,.407-1.045L10.9,8.947a.22.22,0,0,1,.059-.189Z" transform="translate(0)" fill="#333"/>
</svg>
