<svg xmlns="http://www.w3.org/2000/svg" width="12.699" height="10" viewBox="0 0 12.699 10">
    <defs>
        <style>
            .cls-1{fill:#666}
        </style>
    </defs>
    <g id="car-icon" transform="translate(-429.506 -371.506)">
        <path id="Path_104" data-name="Path 104" class="cls-1" d="m440.552 374.664-.61-1.524a2.585 2.585 0 0 0-2.411-1.633h-3.354a2.585 2.585 0 0 0-2.411 1.633l-.61 1.525a2.789 2.789 0 0 0-1.649 2.674l.387 1.669a.893.893 0 0 0 .871.694.943.943 0 0 0-.211.574v.271a.959.959 0 0 0 .959.959h.27a.96.96 0 0 0 .959-.959v-.271a.937.937 0 0 0-.212-.574h6.648a.937.937 0 0 0-.212.574v.271a.96.96 0 0 0 .959.959h.27a.959.959 0 0 0 .959-.959v-.271a.943.943 0 0 0-.211-.574.893.893 0 0 0 .871-.694l.392-1.713a2.769 2.769 0 0 0-1.654-2.631zm1.143 3.152h-1.827a.4.4 0 0 1-.33-.184.519.519 0 0 1-.052-.485l.182-.465a.419.419 0 0 1 .382-.283h1.628a2.638 2.638 0 0 1 .147.852zm-10.063-3.3.491-1.229a2.2 2.2 0 0 1 2.054-1.391h3.354a2.2 2.2 0 0 1 2.054 1.391l.491 1.229h-8.445zm-1.745 2.783a2.77 2.77 0 0 1 .149-.9h1.224a.476.476 0 0 1 .437.289l.2.465a.476.476 0 0 1-.437.664h-1.451zm2.47 2.982v.271a.575.575 0 0 1-.574.574h-.27a.574.574 0 0 1-.574-.574v-.271a.575.575 0 0 1 .574-.574h.27a.575.575 0 0 1 .573.569zm8.412.271a.574.574 0 0 1-.574.574h-.27a.575.575 0 0 1-.574-.574v-.271a.575.575 0 0 1 .574-.574h.27a.575.575 0 0 1 .574.574zm.67-1.627a.51.51 0 0 1-.5.4h-10.17a.51.51 0 0 1-.5-.4l-.169-.72h1.36a.86.86 0 0 0 .792-1.2l-.2-.465a.861.861 0 0 0-.792-.522h-1.055a1.969 1.969 0 0 1 1.7-1.117h7.895a1.983 1.983 0 0 1 1.709 1.117h-1.459a.8.8 0 0 0-.741.527l-.182.466a.907.907 0 0 0 .093.843.777.777 0 0 0 .648.351h1.739z"/>
        <path id="Path_105" data-name="Path 105" class="cls-1" d="M438.493 377.36h-2.841a.591.591 0 0 0-.591.591l.469 1.139a.782.782 0 0 0 .72.476h1.645a.782.782 0 0 0 .72-.476l.453-1.063.016-.076a.591.591 0 0 0-.591-.591zm-.235 1.577a.393.393 0 0 1-.363.24h-1.645a.394.394 0 0 1-.363-.24l-.435-1.02a.2.2 0 0 1 .2-.169h2.841a.2.2 0 0 1 .2.169z" transform="translate(-1.294 -1.357)"/>
    </g>
</svg>
