<svg xmlns="http://www.w3.org/2000/svg" width="20.992" height="20.319" viewBox="0 0 20.992 20.319">
  <path id="ic_profile_cart" d="M7.4,20.324a1.163,1.163,0,1,1-.827.341,1.13,1.13,0,0,1,.827-.341Zm11.99,0a1.163,1.163,0,1,1-.828.341,1.13,1.13,0,0,1,.828-.341Zm2.59-13.54-.637,5.1a1,1,0,0,1-.818.861L7.238,15.1a.5.5,0,0,0-.406.574l.186,1.118q.375,1.819,1.392,1.82H20.827a.428.428,0,0,1,0,.856H8.41a1.825,1.825,0,0,1-1.5-.75,4.085,4.085,0,0,1-.7-1.766L3.914,4.428a1.928,1.928,0,0,0-.375-.857A4.063,4.063,0,0,0,1.559,3.2c-.745,0-.745-.857,0-.857a4.942,4.942,0,0,1,2.515.589,2.633,2.633,0,0,1,.53.86.5.5,0,0,0,.407.293L18.676,5.427l2.414.238a1,1,0,0,1,.894,1.12Zm-1.342,4.34.4-3.552a1,1,0,0,0-.893-1.106L5.54,4.976A.5.5,0,0,0,5,5.564L6.5,13.84a.5.5,0,0,0,.579.4L19.823,12a1,1,0,0,0,.82-.874Z" transform="translate(-1 -2.34)" fill="#444" fill-rule="evenodd"/>
</svg>
