<svg xmlns="http://www.w3.org/2000/svg" width="20.543" height="14.001" viewBox="0 0 20.543 14.001">
    <defs>
        <style>
            .cls-1{fill:#f80}
        </style>
    </defs>
    <g id="ticket-icon" transform="translate(-130.408 -315.593)">
        <path id="Path_118" data-name="Path 118" class="cls-1" d="M140.683 315.593h9.588c.541 0 .677.134.678.673v3.108c0 .482-.134.623-.609.655a2.57 2.57 0 0 0-.366 5.084 4.339 4.339 0 0 0 .455.047c.359.037.517.19.518.543q.009 1.669 0 3.338c0 .387-.174.549-.569.55h-19.242c-.609 0-.727-.117-.727-.723v-3.075c0-.461.138-.606.593-.638a2.567 2.567 0 0 0 .009-5.127c-.46-.032-.6-.176-.6-.63v-3.174c0-.489.15-.632.653-.632zm-9.332 10.484v2.582h6.055v-.767c.008-.321.192-.523.462-.52s.445.2.452.531c.005.255 0 .511 0 .753h11.7v-2.591a3.605 3.605 0 0 1-2.162-1.178 3.388 3.388 0 0 1-.858-2.34c.028-1.692.918-2.7 3.011-3.444v-2.57h-11.69c0 .275.006.526 0 .776a.459.459 0 1 1-.912-.009c-.007-.257 0-.515 0-.776h-6.064v2.58c2.067.689 3.013 1.786 3.016 3.486s-.967 2.825-3.01 3.487z"/>
        <path id="Path_119" data-name="Path 119" class="cls-1" d="M138.322 320.482c0 .337.006.674 0 1.011a.459.459 0 1 1-.912 0q-.009-.994 0-1.988a.459.459 0 1 1 .912 0c.006.325 0 .651 0 .977z"/>
        <path id="Path_120" data-name="Path 120" class="cls-1" d="M138.322 324.7c0 .327.006.653 0 .979a.467.467 0 0 1-.467.514.461.461 0 0 1-.445-.5q-.011-.994 0-1.989a.464.464 0 0 1 .466-.514c.266.006.442.21.447.533s-.001.647-.001.977z"/>
    </g>
</svg>
