<svg xmlns="http://www.w3.org/2000/svg" xmlns:xlink="http://www.w3.org/1999/xlink" width="11.991" height="6.541" viewBox="0 0 11.991 6.541">
  <defs>
    <clipPath id="clip-path">
      <path id="Path" d="M1.974,6,6.3,1.462A.886.886,0,0,0,6.3.251a.792.792,0,0,0-1.156,0L.239,5.39a.886.886,0,0,0,0,1.211L5.145,11.74a.792.792,0,0,0,1.156,0,.886.886,0,0,0,0-1.211Z" transform="translate(0)" fill="#6d6c6c"/>
    </clipPath>
  </defs>
  <g id="_158" data-name="158" transform="translate(-4 15.541) rotate(-90)">
    <path id="Path-2" data-name="Path" d="M1.974,6,6.3,1.462A.886.886,0,0,0,6.3.251a.792.792,0,0,0-1.156,0L.239,5.39a.886.886,0,0,0,0,1.211L5.145,11.74a.792.792,0,0,0,1.156,0,.886.886,0,0,0,0-1.211Z" transform="translate(9 4)" fill="#6d6c6c"/>
  </g>
</svg>
