<svg xmlns="http://www.w3.org/2000/svg" width="11.999" height="12" viewBox="0 0 11.999 12">
    <defs>
        <style>
            .cls-1{fill:#666}
        </style>
    </defs>
    <g id="edit-icon" transform="translate(-586.664 -510.679)">
        <path id="Path_171" data-name="Path 171" class="cls-1" d="M586.664 514.233a3.547 3.547 0 0 1 .222-.58 1.4 1.4 0 0 1 1.251-.728c2.008-.009 4.017 0 6.026 0a.409.409 0 0 1 .428.4.414.414 0 0 1-.445.416h-5.876a.7.7 0 0 0-.786.791v8.541a.7.7 0 0 0 .782.782h8.554a.7.7 0 0 0 .778-.772v-5.822a.947.947 0 0 1 .007-.177.409.409 0 0 1 .811.065c.005.136 0 .273 0 .41v5.575a1.491 1.491 0 0 1-1.157 1.5 1.785 1.785 0 0 1-.419.044c-2.865 0-5.731-.005-8.6.005a1.528 1.528 0 0 1-1.563-1.281c0-.012-.013-.023-.019-.035z" transform="translate(0 -2)"/>
        <path id="Path_172" data-name="Path 172" class="cls-1" d="M599.074 510.679a1.35 1.35 0 0 1 .7.446c.187.2.386.386.578.581a.952.952 0 0 1 0 1.4q-3.062 3.065-6.13 6.123a.748.748 0 0 1-.358.171 90.2 90.2 0 0 1-1.792.361.406.406 0 0 1-.5-.5c.121-.62.241-1.241.373-1.86a.59.59 0 0 1 .151-.28q3.063-3.074 6.132-6.14a1.282 1.282 0 0 1 .541-.3zm-6.574 8.152a.73.73 0 0 0 .1-.006c.348-.07.7-.137 1.042-.213a.338.338 0 0 0 .154-.1q2.422-2.416 4.84-4.838c.032-.031.062-.065.083-.088l-.983-.984a.829.829 0 0 1-.087.124c-1.509 1.511-3.014 3.026-4.534 4.525a1.427 1.427 0 0 0-.485.9c-.03.226-.085.449-.13.68zm6.83-5.852.453-.457a.136.136 0 0 0 .009-.215c-.253-.255-.505-.512-.766-.759a.181.181 0 0 0-.177-.012c-.171.154-.328.324-.482.48z" transform="translate(-2)"/>
    </g>
</svg>
