<svg xmlns="http://www.w3.org/2000/svg" width="22.5" height="22.501" viewBox="0 0 22.5 22.501">
  <g id="icon_i-fb" data-name="icon/i-fb" transform="translate(-1.25 -1.25)">
    <path id="Fill_1" data-name="Fill 1" d="M11.739,22.5H4.076A4.183,4.183,0,0,1,0,18.424V4.076A4.183,4.183,0,0,1,4.076,0H18.424A4.183,4.183,0,0,1,22.5,4.076V18.424A4.183,4.183,0,0,1,18.424,22.5H14.109V13.391H17.7V10.782H14.109V8.865a1.349,1.349,0,0,1,1.177-1.451H17.7V4.8H15.285C13.4,4.8,11.739,6.716,11.739,8.9v1.885H9.109v2.609h2.63V22.5Zm3.348-8.132v7.152h3.337a3.219,3.219,0,0,0,3.1-3.1V4.076a3.219,3.219,0,0,0-3.1-3.1H4.076a3.219,3.219,0,0,0-3.1,3.1V18.424a3.219,3.219,0,0,0,3.1,3.1h6.685V14.37H8.13V9.8h2.63V8.9c0-2.748,2.072-5.07,4.525-5.07h3.389V8.391H15.285a.546.546,0,0,0-.2.474V9.8h3.587V14.37Z" transform="translate(1.25 1.25)" fill="#444"/>
  </g>
</svg>
