<svg xmlns="http://www.w3.org/2000/svg" xmlns:xlink="http://www.w3.org/1999/xlink" width="12.728" height="12.728" viewBox="0 0 12.728 12.728">
  <defs>
    <clipPath id="clip-path">
      <path id="Shape" d="M5.378,4.5l3.44-3.44A.621.621,0,1,0,7.94.182L4.5,3.622,1.06.182a.621.621,0,0,0-.878.878L3.622,4.5.182,7.94a.621.621,0,1,0,.878.878L4.5,5.378l3.44,3.44a.621.621,0,1,0,.878-.878Z" fill="#333"/>
    </clipPath>
  </defs>
  <g id="_439_" data-name="439+" transform="translate(6.364 -7.071) rotate(45)">
    <path id="Shape-2" data-name="Shape" d="M5.378,4.5l3.44-3.44A.621.621,0,1,0,7.94.182L4.5,3.622,1.06.182a.621.621,0,0,0-.878.878L3.622,4.5.182,7.94a.621.621,0,1,0,.878.878L4.5,5.378l3.44,3.44a.621.621,0,1,0,.878-.878Z" transform="translate(5 5)" fill="#333"/>
  </g>
</svg>
