<svg xmlns="http://www.w3.org/2000/svg" width="11.162" height="16.122" viewBox="0 0 11.162 16.122">
  <path id="_4" data-name="4" d="M806.833,450.1h0c4.878-3.209,2.5-7.983-.626-10.591s-.548-5.009-.548-5.009h0c-5.68,3.6-4.667,5.87-4.161,7.369l.034.1.01.03q.018.057.035.113l0,.016c.012.039.023.078.033.116v0c.391,1.487.261,2.661-.939,2.817h0a1.183,1.183,0,0,1-.172.009l-.046,0a.932.932,0,0,1-.116-.014l-.039-.007a.783.783,0,0,1-.136-.044h0a.74.74,0,0,1-.117-.066l-.025-.018a.807.807,0,0,1-.087-.075l-.016-.015a1.031,1.031,0,0,1-.167-.236l-.008-.015a1.479,1.479,0,0,1-.061-.137c-.019-.049-.036-.1-.052-.152s-.025-.094-.035-.141l-.008-.037c-.008-.038-.015-.076-.021-.114,0-.014,0-.027-.006-.041-.006-.041-.011-.081-.016-.122l0-.03c-.01-.1-.016-.207-.019-.309,0-.012,0-.024,0-.036q0-.059,0-.116c0-.013,0-.026,0-.039,0-.04,0-.079,0-.117,0-.009,0-.019,0-.028,0-.1.009-.186.016-.27l0-.03c0-.031.005-.062.008-.091l0-.031c0-.029.006-.057.009-.084l0-.021c.008-.066.015-.122.022-.167l0-.018.006-.039,0-.016,0-.022,0-.01v-.009h0s-.045.056-.117.158l-.023.033a5.773,5.773,0,0,0-.366.617,5.075,5.075,0,0,0-.146,4.617c1.409,2.9,5.165,2.844,5.165,2.844h0c-.05-.026-.1-.055-.148-.084a3.437,3.437,0,0,1-.342-.219,1.943,1.943,0,0,1-.665-.827,1.422,1.422,0,0,1-.083-.79,2.529,2.529,0,0,1,.445-1c.025-.035.05-.07.076-.1.36-.476.842-.816,1.239-1.254a2.477,2.477,0,0,0,.432-2.093c-.014-.088-.031-.177-.049-.264s-.046-.2-.073-.3c0-.01-.007-.03-.011-.054-.013-.067-.034-.168-.062-.185a.867.867,0,0,0,.112.055c.118.049.251.083.361.137a4.384,4.384,0,0,1,.831.52l.039.032a3.817,3.817,0,0,1,.507.507,3.343,3.343,0,0,1,.762,1.645,2.688,2.688,0,0,1,.016.641,2.26,2.26,0,0,1-.129.576c-.01.027-.027.075-.049.131a1.056,1.056,0,0,1-.187.343.127.127,0,0,1-.046.029,1.713,1.713,0,0,0,.162-.06,1.506,1.506,0,0,0,.242-.132l.043-.029a1.432,1.432,0,0,0,.57-.9,4.828,4.828,0,0,1-1.278,3.156h0Zm-7.112-5.567c-.012-.027-.023-.055-.034-.083C799.7,444.482,799.709,444.509,799.721,444.537Zm-.106-.308c0-.016-.009-.032-.013-.049Zm5.261-.776h0Z" transform="translate(-798.462 -434.504)" fill="#ff2d55"/>
</svg>
