<svg xmlns="http://www.w3.org/2000/svg" xmlns:xlink="http://www.w3.org/1999/xlink" width="56" height="56" viewBox="0 0 56 56">
  <defs>
    <clipPath id="clip-path">
      <path id="Clip_3" data-name="Clip 3" d="M0,0H5.836V11H0Z" fill="none"/>
    </clipPath>
    <clipPath id="clip-path-2">
      <path id="Clip_10" data-name="Clip 10" d="M0,0H5.236V11H0Z" fill="none"/>
    </clipPath>
    <clipPath id="clip-path-3">
      <path id="Clip_13" data-name="Clip 13" d="M0,0H8.53V11H0Z" transform="translate(0)" fill="none"/>
    </clipPath>
  </defs>
  <g id="index_takeout_icon" transform="translate(0.5 0.5)">
    <circle id="Oval" cx="27.5" cy="27.5" r="27.5" fill="none" stroke="#fff" stroke-miterlimit="10" stroke-width="1"/>
    <g id="Group_2" data-name="Group 2" transform="translate(9 16)">
      <g id="Group_17" data-name="Group 17">
        <path id="Fill_1" data-name="Fill 1" d="M0,3.339H5.679V0H0Z" fill="#fff"/>
        <g id="Group_8" data-name="Group 8" transform="translate(0.064 4.094)">
          <g id="Group_4" data-name="Group 4">
            <path id="Clip_3-2" data-name="Clip 3" d="M0,0H5.836V11H0Z" fill="none"/>
            <g id="Group_4-2" data-name="Group 4" clip-path="url(#clip-path)">
              <path id="Fill_2" data-name="Fill 2" d="M10.269,5.5A5.327,5.327,0,0,1,5.135,11,5.327,5.327,0,0,1,0,5.5,5.327,5.327,0,0,1,5.135,0a5.327,5.327,0,0,1,5.135,5.5" transform="translate(-4.433)" fill="#fff"/>
              <path id="Fill_5" data-name="Fill 5" d="M4.029,2.158A2.091,2.091,0,0,1,2.015,4.317,2.091,2.091,0,0,1,0,2.158,2.09,2.09,0,0,1,2.015,0,2.09,2.09,0,0,1,4.029,2.158" transform="translate(-1.55 3.119)" fill="#f80"/>
            </g>
          </g>
        </g>
        <g id="Group_11" data-name="Group 11" transform="translate(7.167 0.118)">
          <path id="Clip_10-2" data-name="Clip 10" d="M0,0H5.236V11H0Z" fill="none"/>
          <g id="Group_11-2" data-name="Group 11" clip-path="url(#clip-path-2)">
            <path id="Fill_9" data-name="Fill 9" d="M10.269,5.5A5.327,5.327,0,0,1,5.135,11,5.327,5.327,0,0,1,0,5.5,5.327,5.327,0,0,1,5.135,0a5.327,5.327,0,0,1,5.135,5.5" fill="#fff"/>
          </g>
        </g>
        <g id="Group_14" data-name="Group 14" transform="translate(14.509 0.118)">
          <path id="Clip_13-2" data-name="Clip 13" d="M0,0H8.53V11H0Z" transform="translate(0)" fill="none"/>
          <g id="Group_14-2" data-name="Group 14" clip-path="url(#clip-path-3)">
            <path id="Fill_12" data-name="Fill 12" d="M10.269,5.5A5.327,5.327,0,0,1,5.135,11,5.328,5.328,0,0,1,0,5.5,5.328,5.328,0,0,1,5.135,0a5.327,5.327,0,0,1,5.135,5.5" transform="translate(0)" fill="#fff"/>
          </g>
        </g>
        <path id="Fill_15" data-name="Fill 15" d="M11,5.5A5.5,5.5,0,1,1,5.5,0,5.5,5.5,0,0,1,11,5.5" transform="translate(24.998 0.118)" fill="#fff"/>
      </g>
      <g id="Group_16" data-name="Group 16" transform="translate(10.045 13.763)">
        <path id="Path" d="M0,7.708v2.514a.552.552,0,0,0,.563.538H21.956a.552.552,0,0,0,.563-.538V7.708A2.406,2.406,0,0,1,20.482,5.38a2.407,2.407,0,0,1,2.036-2.328V.538A.552.552,0,0,0,21.956,0H.563A.552.552,0,0,0,0,.538V3.051A2.407,2.407,0,0,1,2.036,5.38,2.406,2.406,0,0,1,0,7.708" transform="translate(0 0)" fill="#fff"/>
        <path id="Fill_1-2" data-name="Fill 1" d="M.385,2.845a.375.375,0,0,1-.37-.377L0,.382A.375.375,0,0,1,.368,0h0a.375.375,0,0,1,.37.377L.755,2.463a.375.375,0,0,1-.368.382Z" transform="translate(5.185 0)" fill="#f80"/>
        <path id="Fill_3" data-name="Fill 3" d="M.37,2.466A.375.375,0,0,1,0,2.086V.379A.375.375,0,0,1,.37,0a.375.375,0,0,1,.37.379V2.086a.375.375,0,0,1-.37.379" transform="translate(5.185 4.172)" fill="#f80"/>
        <path id="Fill_5-2" data-name="Fill 5" d="M.37,3.034A.375.375,0,0,1,0,2.655V.379A.375.375,0,0,1,.37,0a.375.375,0,0,1,.37.379V2.655a.375.375,0,0,1-.37.379" transform="translate(5.185 7.966)" fill="#f80"/>
        <path id="Fill_7" data-name="Fill 7" d="M9.355.741H.645C.289.741,0,.575,0,.37S.289,0,.645,0h8.71C9.711,0,10,.166,10,.37s-.289.37-.645.37" transform="translate(8.259 2.667)" fill="#f80"/>
        <path id="Fill_9-2" data-name="Fill 9" d="M9.355.741H.645C.289.741,0,.575,0,.37S.289,0,.645,0h8.71C9.711,0,10,.166,10,.37s-.289.37-.645.37" transform="translate(8.259 7.667)" fill="#f80"/>
        <path id="Fill_11" data-name="Fill 11" d="M9.355.741H.645C.289.741,0,.575,0,.37S.289,0,.645,0h8.71C9.711,0,10,.166,10,.37s-.289.37-.645.37" transform="translate(8.259 5.259)" fill="#f80"/>
      </g>
    </g>
  </g>
</svg>
