<svg xmlns="http://www.w3.org/2000/svg" width="7.01" height="14" viewBox="0 0 7.01 14">
  <path id="_50" d="M2.843,13a.816.816,0,0,1-.524-.195,1,1,0,0,1-.286-.389,1.132,1.132,0,0,1-.07-.6L2.47,8.473a.232.232,0,0,0-.029-.148.363.363,0,0,0-.022-.03L1.353,7.122.271,5.928A1.1,1.1,0,0,1,.044,4.89.932.932,0,0,1,.75,4.206l.016,0,2.968-.488a.183.183,0,0,0,.134-.11L5.2.564A.884.884,0,0,1,6,0V11.281H5.994a.15.15,0,0,0-.078.022L3.26,12.882a.814.814,0,0,1-.31.11A.8.8,0,0,1,2.843,13Z" transform="translate(0.51 0.5)" fill="#f80" stroke="rgba(0,0,0,0)" stroke-miterlimit="10" stroke-width="1"/>
</svg>
