<svg xmlns="http://www.w3.org/2000/svg" width="23.737" height="17.501" viewBox="0 0 23.737 17.501">
  <g id="icon_i-love" data-name="icon/i-love" transform="translate(0 -3.75)">
    <path id="Fill_1" data-name="Fill 1" d="M16.816,17.5a.482.482,0,0,1-.411-.243,8.109,8.109,0,0,0-1.908-2,12.985,12.985,0,0,0-1.176-.823l-.01-.006c-.271-.176-.513-.338-.739-.5l-.028.02c-.231.167-.469.339-.693.528a10.923,10.923,0,0,0-2.535,2.769A.482.482,0,0,1,8.9,17.5a.487.487,0,0,1-.416-.252,10.986,10.986,0,0,0-2.538-2.772A17.025,17.025,0,0,0,4.38,13.329,10.853,10.853,0,0,1,1.7,11.041,7.77,7.77,0,0,1,.469,3.573,5.134,5.134,0,0,1,5.185,0c.111,0,.224,0,.336.012A4.212,4.212,0,0,1,8.9,2.5,4.213,4.213,0,0,1,12.281.013C12.394,0,12.509,0,12.622,0a5.128,5.128,0,0,1,4.709,3.573,7.36,7.36,0,0,1,.385,1.485,3.075,3.075,0,0,1,1.678-.673c.086-.006.173-.009.259-.009a4.023,4.023,0,0,1,3.715,2.7,5.7,5.7,0,0,1-.961,5.648,8.282,8.282,0,0,1-2.074,1.7l-.013.009-.036.023a12.656,12.656,0,0,0-1.149.806,8.072,8.072,0,0,0-1.908,2A.486.486,0,0,1,16.816,17.5ZM13.964,5.47A3.034,3.034,0,0,0,11.17,7.516,4.477,4.477,0,0,0,11.961,12a7.488,7.488,0,0,0,1.849,1.488l.014.009a13.754,13.754,0,0,1,1.261.885,10.809,10.809,0,0,1,1.73,1.674,10.735,10.735,0,0,1,1.73-1.674,14.042,14.042,0,0,1,1.273-.894l.006,0A7.468,7.468,0,0,0,21.669,12a4.47,4.47,0,0,0,.793-4.481,3.04,3.04,0,0,0-2.8-2.046c-.068,0-.137,0-.206.007A2.444,2.444,0,0,0,17.311,7.95a.5.5,0,1,1-.99,0,2.444,2.444,0,0,0-2.147-2.472C14.107,5.473,14.038,5.47,13.964,5.47ZM5.185,1.094A4.153,4.153,0,0,0,1.382,4,6.506,6.506,0,0,0,2.448,10.33,9.9,9.9,0,0,0,4.9,12.4a17.346,17.346,0,0,1,1.655,1.216,13.627,13.627,0,0,1,2.349,2.4,13.713,13.713,0,0,1,2.349-2.4c.1-.081.2-.155.3-.227.058-.043.117-.085.174-.13a5.3,5.3,0,0,1-.5-.531,5.7,5.7,0,0,1-.96-5.648,4.023,4.023,0,0,1,3.715-2.7c.086,0,.173,0,.259.009A3.273,3.273,0,0,1,16.8,6.048,6.155,6.155,0,0,0,16.42,4a4.152,4.152,0,0,0-3.8-2.9c-.091,0-.184,0-.275.01A3.469,3.469,0,0,0,9.4,4.672a.5.5,0,1,1-.99,0A3.469,3.469,0,0,0,5.454,1.1C5.365,1.1,5.274,1.094,5.185,1.094Z" transform="translate(0 3.75)" fill="#444"/>
  </g>
</svg>
