<svg xmlns="http://www.w3.org/2000/svg" xmlns:xlink="http://www.w3.org/1999/xlink" width="22.5" height="20.357" viewBox="0 0 22.5 20.357">
  <defs>
    <clipPath id="clip-path">
      <path id="Clip_2" data-name="Clip 2" d="M0,0H22.5V20.357H0Z" fill="none"/>
    </clipPath>
  </defs>
  <g id="icon_i-hire" data-name="icon/i-hire" transform="translate(-1.25 -2.5)">
    <g id="Page_1" data-name="Page 1" transform="translate(1.25 2.5)">
      <path id="Clip_2-2" data-name="Clip 2" d="M0,0H22.5V20.357H0Z" fill="none"/>
      <g id="Page_1-2" data-name="Page 1" clip-path="url(#clip-path)">
        <path id="Fill_1" data-name="Fill 1" d="M15.283,20.357H12.731a.5.5,0,0,1-.091-.008l-.141-.025c-3.661-.188-4.576-1.1-4.8-1.49a2.58,2.58,0,0,1-.51-.774,2.618,2.618,0,0,1-.8-.452,2.26,2.26,0,0,1-1.015-2.248,8.816,8.816,0,0,1,2.06-4.887,9.521,9.521,0,0,1,2.777-2.217,4.864,4.864,0,0,1-1.06-1.834,3.451,3.451,0,0,1-.469.8A6.175,6.175,0,0,1,9.747,7.9l-.606.784a5.258,5.258,0,0,0-1.478-.82.5.5,0,0,1-.321-.386.505.505,0,0,1,.177-.471,2.486,2.486,0,0,0,.923-1.932,2.53,2.53,0,0,0-5.06,0,2.483,2.483,0,0,0,.938,1.944.5.5,0,0,1-.129.856,5.221,5.221,0,0,0-3.207,4.3c-.014.555.219.7.245.716a.371.371,0,0,1,.145.1.938.938,0,0,0,.372.186A.5.5,0,0,1,2.1,13.5a.931.931,0,0,0,.237.39.483.483,0,0,1,.091.123c.044.048.49.476,2.4.6l-.062.994C2.486,15.462,1.8,14.884,1.6,14.552a1.936,1.936,0,0,1-.335-.493,1.965,1.965,0,0,1-.5-.294A1.741,1.741,0,0,1,0,12.1,6.21,6.21,0,0,1,3.174,7.267,3.493,3.493,0,0,1,5.911,1.579a3.529,3.529,0,0,1,3.2,2.043A4.973,4.973,0,0,1,18.866,4.94,4.918,4.918,0,0,1,17.629,8.2,8.27,8.27,0,0,1,22.1,13.083c.309.956.721,2.745.009,3.977a2.209,2.209,0,0,1-1.286,1.011,2.647,2.647,0,0,1-.2.369c-.164.369-1.01,1.594-5.005,1.864l-.133.024-.116.021A.444.444,0,0,1,15.283,20.357ZM7.006,16.829l0,0a1.615,1.615,0,0,0,.665.337.493.493,0,0,1,.358.334,1.594,1.594,0,0,0,.412.677.5.5,0,0,1,.1.144c.062.086.706.842,4.033,1.008a.558.558,0,0,1,.061.007l.135.024h2.466l.267-.045c3.491-.238,4.155-1.179,4.219-1.286a.5.5,0,0,1,.052-.1,1.661,1.661,0,0,0,.206-.43.492.492,0,0,1,.373-.336,1.254,1.254,0,0,0,.9-.608,4.29,4.29,0,0,0-.095-3.163,7.377,7.377,0,0,0-4.591-4.548.5.5,0,0,1-.144-.857A3.917,3.917,0,0,0,17.883,4.94a3.987,3.987,0,0,0-7.973,0,3.914,3.914,0,0,0,1.482,3.068.5.5,0,0,1,.181.466.5.5,0,0,1-.311.389,8.028,8.028,0,0,0-4.9,6.565c-.028,1.04.475,1.29.5,1.3a.524.524,0,0,1,.149.1H7Z" transform="translate(0 0)" fill="#444"/>
      </g>
    </g>
  </g>
</svg>
