<svg xmlns="http://www.w3.org/2000/svg" width="56" height="56" viewBox="0 0 56 56">
  <g id="index_home_icon" transform="translate(0.5 0.5)">
    <circle id="Oval" cx="27.5" cy="27.5" r="27.5" fill="none" stroke="#fff" stroke-miterlimit="10" stroke-width="1"/>
    <g id="Group" transform="translate(13 11)">
      <g id="箱子shipping" transform="translate(0.088 0)">
        <g id="熱狗" transform="matrix(0.454, -0.891, 0.891, 0.454, 0, 14.439)">
          <path id="Fill_3" data-name="Fill 3" d="M.659,8.114H.644a.158.158,0,0,1-.115-.068c-.626-.919-.7-1.764-.2-2.261L5.888.266A.943.943,0,0,1,6.577,0,2.8,2.8,0,0,1,8.048.588a.156.156,0,0,1,.02.237L.77,8.068A.156.156,0,0,1,.659,8.114ZM6.577.311A.629.629,0,0,0,6.11.486L.55,6c-.361.358-.311.981.136,1.708L7.712.737A2.266,2.266,0,0,0,6.577.311Z" transform="translate(0 0)" fill="#f80"/>
          <path id="Fill_1" data-name="Fill 1" d="M7.736.568.5,7.925c-.511-.768-.71-1.6-.218-2.1L5.8.224C6.223-.211,7,.032,7.736.568" transform="translate(0.189 0.189)" fill="#fff"/>
          <path id="Fill_5" data-name="Fill 5" d="M7.7,1.941,2.1,7.453c-.5.492-1.328.293-2.1-.217L7.357,0c.535.739.779,1.513.343,1.941" transform="translate(1.887 2.075)" fill="#fff"/>
          <path id="Fill_7" data-name="Fill 7" d="M1.5,8.114A2.644,2.644,0,0,1,.068,7.582a.157.157,0,0,1-.022-.24L7.287.046A.155.155,0,0,1,7.4,0h.013a.154.154,0,0,1,.113.065c.651.921.769,1.708.321,2.159L2.328,7.781A1.124,1.124,0,0,1,1.5,8.114ZM7.375.4.4,7.426A2.239,2.239,0,0,0,1.5,7.8a.832.832,0,0,0,.612-.239L7.626,2C7.929,1.7,7.837,1.113,7.375.4Z" transform="translate(1.887 1.887)" fill="#f80"/>
          <path id="Fill_9" data-name="Fill 9" d="M9.42,1.522l-.3.3L1.838,9.1,1.5,9.438c-.669.669-1.989-.65-1.319-1.319l.334-.334L7.8.5,8.1.2c.708-.708,2.027.612,1.319,1.319" transform="translate(0.189 0.189)" fill="#fff"/>
          <path id="Fill_11" data-name="Fill 11" d="M1.222,9.977A1.37,1.37,0,0,1,.08,9.133.82.82,0,0,1,.23,8.2L8.172.249A.822.822,0,0,1,8.763,0,1.319,1.319,0,0,1,9.886.817a.861.861,0,0,1-.168.978l-.3.3L2.111,9.41l-.336.335A.765.765,0,0,1,1.222,9.977ZM8.763.314a.508.508,0,0,0-.37.157L.453,8.42a.516.516,0,0,0-.083.593,1.052,1.052,0,0,0,.852.649.458.458,0,0,0,.332-.139l.335-.336L9.2,1.872l.3-.3A.554.554,0,0,0,9.6.937,1,1,0,0,0,8.763.314Z" transform="translate(0 0.024)" fill="#f80" stroke="#f80" stroke-miterlimit="10" stroke-width="0.3"/>
          <path id="Fill_16" data-name="Fill 16" d="M.251,5.849A.152.152,0,0,1,.142,5.8a.47.47,0,0,1-.126-.454A.5.5,0,0,1,.359,5a.441.441,0,0,1,.441.13.114.114,0,0,0,.121.036.23.23,0,0,0,.149-.153.122.122,0,0,0-.035-.125.472.472,0,0,1,0-.677.442.442,0,0,1,.658,0,.068.068,0,0,0,.077.016.291.291,0,0,0,.18-.185.074.074,0,0,0-.016-.08A.477.477,0,0,1,1.794,3.6a.493.493,0,0,1,.141-.315.469.469,0,0,1,.306-.145.45.45,0,0,1,.351.145.114.114,0,0,0,.1.04.2.2,0,0,0,.114-.062c.02-.02.113-.126.021-.22a.485.485,0,0,1,.306-.821.452.452,0,0,1,.351.145c.056.057.155-.02.189-.054s.109-.137.053-.195a.485.485,0,0,1,.306-.821.45.45,0,0,1,.352.145.114.114,0,0,0,.1.04A.2.2,0,0,0,4.6,1.417c.02-.02.113-.126.021-.22A.47.47,0,0,1,4.493.743.5.5,0,0,1,4.837.39a.441.441,0,0,1,.441.13.068.068,0,0,0,.077.016.291.291,0,0,0,.18-.185A.074.074,0,0,0,5.52.271a.162.162,0,0,1,0-.225.152.152,0,0,1,.219,0,.4.4,0,0,1,.1.387.606.606,0,0,1-.4.41.373.373,0,0,1-.376-.1A.14.14,0,0,0,4.917.7a.188.188,0,0,0-.125.129.149.149,0,0,0,.047.147.469.469,0,0,1-.022.669.5.5,0,0,1-.3.153.418.418,0,0,1-.351-.131.144.144,0,0,0-.221,0,.154.154,0,0,0,0,.228.453.453,0,0,1-.054.644.424.424,0,0,1-.626.054.144.144,0,0,0-.221,0,.154.154,0,0,0,0,.228.469.469,0,0,1-.022.669.5.5,0,0,1-.3.153.418.418,0,0,1-.351-.131.144.144,0,0,0-.221,0,.175.175,0,0,0-.051.109.156.156,0,0,0,.051.119.4.4,0,0,1,.1.387.606.606,0,0,1-.4.41.373.373,0,0,1-.376-.1.144.144,0,0,0-.221,0,.154.154,0,0,0,0,.228.445.445,0,0,1,.115.431A.543.543,0,0,1,1,5.469a.417.417,0,0,1-.419-.118A.14.14,0,0,0,.439,5.3a.187.187,0,0,0-.125.129.149.149,0,0,0,.047.147.162.162,0,0,1,0,.225.152.152,0,0,1-.109.046" transform="translate(2.075 2.075)" fill="#f80"/>
        </g>
        <g id="Group_6" data-name="Group 6" transform="translate(9.359 16.707) rotate(-101)">
          <path id="Fill_1-2" data-name="Fill 1" d="M4.332,5.988h0a5.456,5.456,0,0,1-2.4-.971,9.519,9.519,0,0,0,.68-.988l-.053.025a4.285,4.285,0,0,1-1.288.427A8.664,8.664,0,0,1,0,2.987,5.991,5.991,0,0,1,4.381,0a11.809,11.809,0,0,1,.351,2.579,12.264,12.264,0,0,1-.4,3.407ZM2.412,1.156a.593.593,0,1,0,.593.592A.593.593,0,0,0,2.412,1.156Z" transform="translate(0 0.056)" fill="#fff"/>
          <path id="Fill_3-2" data-name="Fill 3" d="M11.24,1.164A4.409,4.409,0,0,1,7.387,2.231,14.385,14.385,0,0,1,4.343,1.1,11.771,11.771,0,0,0,1.277.047,5.29,5.29,0,0,0,.062.024a.426.426,0,0,0,0,.223.439.439,0,0,0,.4.323.426.426,0,0,0-.228.457A.422.422,0,0,0,.6,1.382.44.44,0,0,0,.33,1.82a.43.43,0,0,0,.346.38.43.43,0,0,0-.3.417.438.438,0,0,0,.317.4.425.425,0,0,0-.324.4.435.435,0,0,0,.287.423.43.43,0,0,0-.092.816A.435.435,0,0,0,.189,5a.43.43,0,0,0,.227.461.429.429,0,0,0-.4.318.458.458,0,0,0,.028.3,5.507,5.507,0,0,0,1.237-.038A11.756,11.756,0,0,0,4.343,4.982,14.414,14.414,0,0,1,7.387,3.854,4.409,4.409,0,0,1,11.24,4.921c0-1.36-.867-1.614-.867-1.918,0-.278.867-.6.867-1.839" transform="translate(4.595 0)" fill="#fff"/>
          <rect id="Rectangle" width="1" height="0.5" rx="0.25" transform="translate(13.968 2.534) rotate(90)" fill="#f80"/>
        </g>
        <g id="Group_23" data-name="Group 23" transform="translate(13.778 1.939)">
          <path id="Fill_4" data-name="Fill 4" d="M8.1,16.976H.717L0,4.049,2.3,0H6.441L8.1,4.226Z" transform="translate(0.981 1.476)" fill="#fff"/>
          <path id="Stroke_5" data-name="Stroke 5" d="M7.858,16.976H.477L0,3.711,2.059,0H6.2L7.858,4.226Z" transform="translate(1.135 1.476)" fill="none" stroke="#fff" stroke-linejoin="round" stroke-miterlimit="10" stroke-width="0.5"/>
          <path id="Fill_27" data-name="Fill 27" d="M4.874,1.453H.73A.725.725,0,0,1,0,.734V.719A.725.725,0,0,1,.73,0H4.874A.725.725,0,0,1,5.6.719V.734a.725.725,0,0,1-.73.719" transform="translate(2.4 0.038)" fill="#f80"/>
          <path id="Stroke_28" data-name="Stroke 28" d="M4.874,1.453H.73A.725.725,0,0,1,0,.734V.719A.725.725,0,0,1,.73,0H4.874A.725.725,0,0,1,5.6.719V.734A.725.725,0,0,1,4.874,1.453Z" transform="translate(2.498)" fill="none" stroke="#fff" stroke-linejoin="round" stroke-miterlimit="10" stroke-width="0.8"/>
          <g id="麵包" transform="translate(0 5)">
            <path id="Fill_21" data-name="Fill 21" d="M2.525,9.587h-.05A2.409,2.409,0,0,1,0,7.25V2.337A2.409,2.409,0,0,1,2.475,0h.05A2.409,2.409,0,0,1,5,2.337V7.25A2.409,2.409,0,0,1,2.525,9.587" transform="translate(0.234)" fill="#fff"/>
            <path id="Stroke_22" data-name="Stroke 22" d="M2.777,11H2.722A2.7,2.7,0,0,1,0,8.319V2.681A2.7,2.7,0,0,1,2.722,0h.055A2.7,2.7,0,0,1,5.5,2.681V8.319A2.7,2.7,0,0,1,2.777,11Z" fill="none" stroke="#f80" stroke-linejoin="round" stroke-miterlimit="10" stroke-width="0.6"/>
            <path id="Stroke_40" data-name="Stroke 40" d="M0,.738,1.476,0" transform="translate(2.578 2.343)" fill="none" stroke="#f80" stroke-linecap="round" stroke-linejoin="round" stroke-miterlimit="10" stroke-width="1"/>
            <path id="Stroke_43" data-name="Stroke 43" d="M0,.738,1.476,0" transform="translate(2.578 4.557)" fill="none" stroke="#f80" stroke-linecap="round" stroke-linejoin="round" stroke-miterlimit="10" stroke-width="1"/>
          </g>
        </g>
      </g>
      <g id="box" transform="translate(0 10.145)">
        <path id="Fill_23" data-name="Fill 23" d="M0,16.56H20.352V0H0Z" transform="translate(3.777 5.487)" fill="#fff"/>
        <path id="Stroke_24" data-name="Stroke 24" d="M0,16.56H20.352V0H0Z" transform="translate(3.777 5.487)" fill="none"/>
        <path id="Fill_29" data-name="Fill 29" d="M10.427,5.135A5.175,5.175,0,0,0,5.213,0,5.175,5.175,0,0,0,0,5.135,5.175,5.175,0,0,0,5.213,10.27a5.175,5.175,0,0,0,5.213-5.135" transform="translate(8.605 8.67)" fill="#fff"/>
        <path id="Stroke_30" data-name="Stroke 30" d="M10.427,5.135A5.175,5.175,0,0,0,5.213,0,5.175,5.175,0,0,0,0,5.135,5.175,5.175,0,0,0,5.213,10.27,5.175,5.175,0,0,0,10.427,5.135Z" transform="translate(8.605 8.67)" fill="none" stroke="#f80" stroke-linejoin="round" stroke-miterlimit="10" stroke-width="1"/>
        <path id="Fill_31" data-name="Fill 31" d="M3.58,5.09a.563.563,0,0,1-.788,0L.494,2.826A1.645,1.645,0,0,1,.659.334a1.744,1.744,0,0,1,2.26.181l.267.263L3.453.516A1.744,1.744,0,0,1,5.713.334a1.645,1.645,0,0,1,.164,2.492Z" transform="translate(10.632 11.661)" fill="#f80"/>
        <path id="Stroke_37" data-name="Stroke 37" d="M0,5.9,4.429,0" transform="translate(23.706)" fill="none" stroke="#fff" stroke-linecap="round" stroke-linejoin="round" stroke-miterlimit="10" stroke-width="1"/>
        <path id="Stroke_34" data-name="Stroke 34" d="M4.429,5.9,0,0" fill="none" stroke="#fff" stroke-linecap="round" stroke-linejoin="round" stroke-miterlimit="10" stroke-width="1"/>
        <path id="Rectangle-2" data-name="Rectangle" d="M0,.5A.292.292,0,0,1,.292.208H18.314A.292.292,0,0,1,18.606.5h0a.292.292,0,0,1-.292.292H.292A.292.292,0,0,1,0,.5Z" transform="translate(4.794 4.695)" fill="#f80"/>
      </g>
    </g>
  </g>
</svg>
