<svg xmlns="http://www.w3.org/2000/svg" width="56" height="56" viewBox="0 0 56 56">
  <g id="index_love_icon" transform="translate(0.5 0.5)">
    <circle id="Oval" cx="27.5" cy="27.5" r="27.5" fill="none" stroke="#fff" stroke-miterlimit="10" stroke-width="1"/>
    <path id="Fill_1" data-name="Fill 1" d="M25.978,27.48h-.894a.986.986,0,0,1-.983-.987V23.618H5.066v2.875a.986.986,0,0,1-.983.987H3.064a.986.986,0,0,1-.983-.987V23.618H.626A.628.628,0,0,1,0,22.989v-1.32a.628.628,0,0,1,.626-.629h.382V15.463a1.9,1.9,0,0,1,1.468-1.856V2.174a.738.738,0,0,1,.736-.739h.723a.738.738,0,0,1,.736.739V4.136a4.4,4.4,0,0,0,3.652-2.12A4.007,4.007,0,0,1,11.66,0a3.8,3.8,0,0,1,2.923,1.369A3.792,3.792,0,0,1,17.506,0a4.007,4.007,0,0,1,3.337,2.017A4.4,4.4,0,0,0,24.5,4.136V2.174a.738.738,0,0,1,.736-.739h.723a.738.738,0,0,1,.736.739V13.607a1.9,1.9,0,0,1,1.469,1.856v5.576h.381a.628.628,0,0,1,.626.629v1.32a.628.628,0,0,1-.626.629H27.086v2.75A1.111,1.111,0,0,1,25.978,27.48ZM16.966,9.545A1.352,1.352,0,0,0,15.619,10.9v2.66h7.575V10.9a1.352,1.352,0,0,0-1.347-1.353Zm-9.645,0A1.352,1.352,0,0,0,5.972,10.9v2.66h7.575V10.9A1.352,1.352,0,0,0,12.2,9.545Zm5.964-7.434a1.973,1.973,0,0,0-1.966,1.975c0,2.286,3.233,4.021,3.265,4.038.032-.017,3.265-1.742,3.265-4.038a1.973,1.973,0,0,0-1.967-1.975,1.675,1.675,0,0,0-1.3.619A1.674,1.674,0,0,0,13.285,2.111Z" transform="translate(13 14)" fill="#fff"/>
  </g>
</svg>
