<svg xmlns="http://www.w3.org/2000/svg" width="22.192" height="16" viewBox="0 0 22.192 16">
    <defs>
        <style>
            .cls-4{fill:#146643}
        </style>
    </defs>
    <g id="jce-icon" transform="translate(-697.001 -789)">
        <g id="Group_951" data-name="Group 951" transform="translate(247.305 116.693)">
            <g id="Group_939" data-name="Group 939">
                <path id="Path_158" data-name="Path 158" d="M452.738 672.307a2.873 2.873 0 0 0-3.042 3.042v5.513a1.646 1.646 0 0 0 1.646 1.181 1.463 1.463 0 0 0 1.54-1.432v-2.792h2.434v2.756c0 1.54-1.969 2.327-3.4 2.327a3.685 3.685 0 0 1-2.183-.68v6.085h3.867a3.1 3.1 0 0 0 2.936-2.935v-13.065z" style="fill:#1174ce"/>
            </g>
            <g id="Group_940" data-name="Group 940">
                <path id="Path_159" data-name="Path 159" d="M449.7 675.349v5.513a1.646 1.646 0 0 0 1.646 1.181 1.463 1.463 0 0 0 1.54-1.432v-2.792h2.434v2.756c0 1.54-1.969 2.327-3.4 2.327a3.685 3.685 0 0 1-2.183-.68v6.085h3.863a3.1 3.1 0 0 0 2.936-2.935v-13.065" style="fill:#0f549d"/>
            </g>
            <g id="Group_941" data-name="Group 941">
                <path id="Path_160" data-name="Path 160" d="M455.28 677.819v2.756c0 1.54-1.969 2.327-3.4 2.327a3.687 3.687 0 0 1-2.183-.68v6.085h3.866a3.1 3.1 0 0 0 2.935-2.935" style="fill:#02375e"/>
            </g>
            <g id="Group_947" data-name="Group 947">
                <g id="Group_942" data-name="Group 942">
                    <path id="Path_161" data-name="Path 161" class="cls-4" d="M466.269 681.971h1.682a.823.823 0 1 0 0-1.646h-1.682z"/>
                </g>
                <g id="Group_943" data-name="Group 943">
                    <path id="Path_162" data-name="Path 162" d="M468.166 672.307a2.846 2.846 0 0 0-3.043 3.007v2.5h4.51a1.182 1.182 0 0 1 0 2.363 1.213 1.213 0 0 1 1.289 1.145 1.192 1.192 0 0 1-1.289 1.145h-4.546v5.835h3.866a3.1 3.1 0 0 0 2.935-2.935v-13.06z" style="fill:#1bcc38"/>
                </g>
                <g id="Group_944" data-name="Group 944">
                    <path id="Path_163" data-name="Path 163" d="M465.087 675.349v2.47h4.51a1.182 1.182 0 1 1 0 2.363 1.213 1.213 0 0 1 1.289 1.145 1.192 1.192 0 0 1-1.289 1.145h-4.51v5.835h3.866a3.1 3.1 0 0 0 2.935-2.935v-13.065" style="fill:#329947"/>
                </g>
                <g id="Group_945" data-name="Group 945">
                    <path id="Path_164" data-name="Path 164" class="cls-4" d="M470.779 679a1.192 1.192 0 0 1-1.182 1.182 1.213 1.213 0 0 1 1.289 1.145 1.192 1.192 0 0 1-1.289 1.145h-4.51v5.835h3.866a3.1 3.1 0 0 0 2.935-2.935"/>
                </g>
                <g id="Group_946" data-name="Group 946">
                    <path id="Path_165" data-name="Path 165" class="cls-4" d="M468.738 679.144a.857.857 0 0 0-.823-.824h-1.646v1.611h1.682a.794.794 0 0 0 .787-.787z"/>
                </g>
            </g>
            <g id="Group_948" data-name="Group 948">
                <path id="Path_166" data-name="Path 166" d="M460.4 672.307a2.846 2.846 0 0 0-3.042 3.007v3.078a2.439 2.439 0 0 1 1.539-.609h4.081v.86a12.741 12.741 0 0 0-2.363-.323 1.826 1.826 0 0 0 0 3.651 12.025 12.025 0 0 0 2.363-.286v.787h-4.081a2.193 2.193 0 0 1-1.539-.608v6.443h3.866a3.1 3.1 0 0 0 2.935-2.935v-13.065z" style="fill:#e20e37"/>
            </g>
            <g id="Group_949" data-name="Group 949">
                <path id="Path_167" data-name="Path 167" d="M457.356 675.349v3.079a2.439 2.439 0 0 1 1.539-.609h4.081v.859a12.811 12.811 0 0 0-2.363-.322 1.826 1.826 0 0 0 0 3.651 12.03 12.03 0 0 0 2.363-.286v.751h-4.081a2.193 2.193 0 0 1-1.539-.608v6.443h3.866a3.1 3.1 0 0 0 2.935-2.935v-13.065" style="fill:#b41f36"/>
            </g>
            <g id="Group_950" data-name="Group 950">
                <path id="Path_168" data-name="Path 168" d="M462.976 677.819v.859a12.811 12.811 0 0 0-2.363-.322 1.826 1.826 0 0 0 0 3.651 12.03 12.03 0 0 0 2.363-.286v.751h-4.081a2.193 2.193 0 0 1-1.539-.608v6.443h3.866a3.1 3.1 0 0 0 2.935-2.935" style="fill:#720a1e"/>
            </g>
        </g>
    </g>
</svg>
