<svg id="A" xmlns="http://www.w3.org/2000/svg" width="12.74" height="12.75" viewBox="0 0 12.74 12.75">
  <path id="路径_13" data-name="路径 13" d="M9.49,12.75H3.26A3.261,3.261,0,0,1,0,9.49V3.26A3.261,3.261,0,0,1,3.26,0H9.48a3.261,3.261,0,0,1,3.26,3.26V9.48A3.248,3.248,0,0,1,9.49,12.75ZM3.26.75A2.512,2.512,0,0,0,.75,3.26V9.48a2.512,2.512,0,0,0,2.51,2.51H9.48A2.505,2.505,0,0,0,12,9.49V3.26A2.512,2.512,0,0,0,9.49.75Z" fill="#333"/>
  <g id="组_541" data-name="组 541">
    <path id="路径_14" data-name="路径 14" d="M4.92,7.7l-.84,2.54H3.01L5.76,2.16H7.02l2.76,8.08H8.65L7.79,7.7Zm2.65-.82L6.78,4.56c-.18-.53-.3-1.01-.42-1.48H6.34c-.12.48-.25.97-.41,1.46L5.14,6.88Z" fill="#333"/>
  </g>
</svg>
