<svg xmlns="http://www.w3.org/2000/svg" width="20" height="20" viewBox="0 0 20 20">
    <defs>
        <style>
            .cls-3{fill:#00c500}
        </style>
    </defs>
    <g id="line-icon" transform="translate(74.98 -168.653)">
        <circle id="Oval" cx="10" cy="10" r="10" transform="translate(-74.98 168.653)" style="fill:#00c200"/>
        <g id="Group">
            <path id="Path" d="M-58.524 178.325a3.24 3.24 0 0 0 .051-.394 4.742 4.742 0 0 0-.006-.506c-.158-2.751-3.011-4.942-6.508-4.942-3.6 0-6.516 2.321-6.516 5.182 0 2.631 2.465 4.8 5.657 5.139a.355.355 0 0 1 .315.39l-.136 1.223a.356.356 0 0 0 .314.392.35.35 0 0 0 .194-.034 15.355 15.355 0 0 0 5.274-3.8c.175-.211.747-1.012.863-1.222a4.368 4.368 0 0 0 .498-1.428z" style="fill:#fff"/>
            <path id="Path-2" class="cls-3" d="M-68.57 178.716v-2.183a.334.334 0 0 0-.333-.334.335.335 0 0 0-.334.334v2.516a.334.334 0 0 0 .334.333h1.333a.333.333 0 0 0 .333-.333.333.333 0 0 0-.333-.333h-1z"/>
            <path id="Path-3" class="cls-3" d="M-66.514 179.382h-.146a.26.26 0 0 1-.26-.26v-2.662a.26.26 0 0 1 .26-.261h.146a.26.26 0 0 1 .26.261v2.662a.26.26 0 0 1-.26.26z"/>
            <path id="Path-4" class="cls-3" d="M-63.821 176.533v1.538s-1.331-1.737-1.351-1.76a.33.33 0 0 0-.261-.112.343.343 0 0 0-.321.347v2.5a.333.333 0 0 0 .333.333.333.333 0 0 0 .334-.333v-1.527s1.351 1.751 1.371 1.771a.332.332 0 0 0 .225.092.346.346 0 0 0 .337-.35v-2.5a.335.335 0 0 0-.334-.334.334.334 0 0 0-.333.335z"/>
            <path id="Path-5" class="cls-3" d="M-60.654 176.533a.335.335 0 0 0-.334-.334h-1.333a.334.334 0 0 0-.333.334v2.516a.333.333 0 0 0 .333.333h1.333a.334.334 0 0 0 .334-.333.334.334 0 0 0-.334-.333h-1v-.592h1a.334.334 0 0 0 .334-.333.335.335 0 0 0-.334-.334h-1v-.591h1a.334.334 0 0 0 .334-.333z"/>
        </g>
    </g>
</svg>
