<svg xmlns="http://www.w3.org/2000/svg" width="20" height="20" viewBox="0 0 20 20">
    <defs>
        <style>
            .cls-2{fill:#fff}
        </style>
    </defs>
    <g id="link-icon" transform="translate(39.008 -168.75)">
        <circle id="Ellipse_51" data-name="Ellipse 51" cx="10" cy="10" r="10" transform="translate(-39.008 168.75)" style="fill:#f80"/>
        <g id="Group_1441" data-name="Group 1441">
            <path id="Path_204" data-name="Path 204" class="cls-2" d="M-23.144 175.567c-.037.163-.066.328-.113.487a2.42 2.42 0 0 1-.633 1.033l-2.98 2.98a2.408 2.408 0 0 1-2.843.485 3.053 3.053 0 0 1-.638-.457.468.468 0 0 1-.012-.678.478.478 0 0 1 .671-.029 1.569 1.569 0 0 0 .819.426 1.448 1.448 0 0 0 1.2-.337 1.249 1.249 0 0 0 .092-.086l3-3a1.463 1.463 0 0 0 .254-1.788 1.456 1.456 0 0 0-2.246-.354c-.454.42-.88.87-1.318 1.306-.132.132-.262.268-.4.4a.485.485 0 0 1-.69.007.482.482 0 0 1 0-.7c.564-.569 1.12-1.148 1.7-1.7a2.425 2.425 0 0 1 3.7.4 2.358 2.358 0 0 1 .4 1.037c0 .036.016.073.024.109z"/>
            <path id="Path_205" data-name="Path 205" class="cls-2" d="M-32.651 184.616a5.441 5.441 0 0 1-.554-.132 2.423 2.423 0 0 1-1.394-3.419 2.666 2.666 0 0 1 .479-.649c.89-.908 1.792-1.8 2.693-2.7a2.41 2.41 0 0 1 2.841-.492 3.078 3.078 0 0 1 .647.464.465.465 0 0 1 .013.669.476.476 0 0 1-.67.037 1.591 1.591 0 0 0-.818-.428 1.42 1.42 0 0 0-1.213.341c-.166.146-.318.308-.474.464q-1.172 1.17-2.34 2.341a1.462 1.462 0 0 0-.16 1.939 1.453 1.453 0 0 0 2.143.212c.485-.453.944-.934 1.414-1.4a.494.494 0 0 1 .508-.156.483.483 0 0 1 .251.77 2.131 2.131 0 0 1-.174.182c-.432.432-.86.867-1.3 1.292a2.344 2.344 0 0 1-1.372.647.388.388 0 0 0-.063.021z"/>
        </g>
    </g>
</svg>
