<svg xmlns="http://www.w3.org/2000/svg" width="20" height="12.685" viewBox="0 0 20 12.685">
    <g data-name="Group 1825">
        <path data-name="Path 235" d="M-830 523.119a.368.368 0 0 0-.028.051.751.751 0 0 1-.753.561c-.313.006-.626 0-.939 0h-13.9a.773.773 0 0 1-.781-.46.753.753 0 0 1 .6-1.056 2.139 2.139 0 0 1 .253-.01c3.284 0 11.3 0 14.583-.005a.869.869 0 0 1 .96.618z" style="fill:#333" transform="translate(850 -521.951)"/>
        <path data-name="Path 236" d="M-848.992 523.99a1.02 1.02 0 0 1-1.008-1.035 1.018 1.018 0 0 1 1.038-1 1.021 1.021 0 0 1 1.008 1.034 1.021 1.021 0 0 1-1.038 1.001z" style="fill:#333" transform="translate(850 -521.951)"/>
    </g>
    <g data-name="Group 1826">
        <path data-name="Path 237" d="M-830 528.442a.368.368 0 0 0-.028.051.751.751 0 0 1-.753.561c-.313.006-.626 0-.939 0h-13.9a.773.773 0 0 1-.781-.46.753.753 0 0 1 .6-1.056 2.139 2.139 0 0 1 .253-.01c3.284 0 11.3 0 14.583-.005a.87.87 0 0 1 .96.618z" style="fill:#333" transform="translate(850 -521.951)"/>
        <path data-name="Path 238" d="M-848.992 529.313a1.019 1.019 0 0 1-1.008-1.035 1.018 1.018 0 0 1 1.038-1 1.021 1.021 0 0 1 1.008 1.034 1.021 1.021 0 0 1-1.038 1.001z" style="fill:#333" transform="translate(850 -521.951)"/>
    </g>
    <g data-name="Group 1827">
        <path data-name="Path 239" d="M-830 533.765a.368.368 0 0 0-.028.051.751.751 0 0 1-.753.561c-.313.006-.626 0-.939 0h-13.9a.773.773 0 0 1-.781-.46.753.753 0 0 1 .6-1.056 2.37 2.37 0 0 1 .253-.01c3.284 0 11.3 0 14.583-.005a.87.87 0 0 1 .96.618z" style="fill:#333" transform="translate(850 -521.951)"/>
        <path data-name="Path 240" d="M-848.992 534.636A1.019 1.019 0 0 1-850 533.6a1.019 1.019 0 0 1 1.038-1 1.021 1.021 0 0 1 1.008 1.034 1.021 1.021 0 0 1-1.038 1.002z" style="fill:#333" transform="translate(850 -521.951)"/>
    </g>
</svg>
