<svg xmlns="http://www.w3.org/2000/svg" width="9.018" height="11.273" viewBox="0 0 9.018 11.273">
  <path id="Location_Pin" d="M4.508,11.273c-.01,0-.018,0-.018,0s.007-.006.02-.009A13.929,13.929,0,0,1,2.131,9.021,7.842,7.842,0,0,1,0,4.332,3.645,3.645,0,0,1,1.354,1.3,4,4,0,0,1,4.392,0h.235A4,4,0,0,1,7.665,1.3,3.643,3.643,0,0,1,9.018,4.332c0,1.624-1.157,3.37-2.128,4.549a16.259,16.259,0,0,1-2.38,2.379c.012,0,.018.006.018.009S4.517,11.273,4.508,11.273Zm0-9.539A2.1,2.1,0,0,0,2.246,3.9a2.114,2.114,0,0,0,.629,1.574,2.307,2.307,0,0,0,1.635.6,2.313,2.313,0,0,0,1.641-.6A2.121,2.121,0,0,0,6.772,3.9,2.1,2.1,0,0,0,4.509,1.734Z" transform="translate(0)" fill="#afafaf"/>
</svg>
