<svg xmlns="http://www.w3.org/2000/svg" width="160.084" height="53.889" viewBox="0 0 160.084 53.889">
  <g id="Logo" transform="translate(0.1 0)">
    <path id="Fill_1" data-name="Fill 1" d="M7.652,13.913H6.415V12.525c-1.786.18-3.873.334-6.2.458l-.158-.978L1.7,11.943V6.491H0V5.577H15.585v.913H7.652v4.98l1.025-.142v.9l-1.025.158v1.527ZM2.845,10.541V11.9c1.322-.083,2.524-.179,3.57-.284V10.541Zm0-2.017V9.706h3.57V8.524Zm0-2.033V7.673h3.57V6.491Zm6.2,7.406h0l-.653-.883a11.649,11.649,0,0,0,2.739-1.45,6.973,6.973,0,0,1-2-3.088H8.57v-.93H14.6v.883a7.235,7.235,0,0,1-1.785,3.135A14.082,14.082,0,0,0,15.6,12.951l-.653.945A14.494,14.494,0,0,1,12,12.29,11.523,11.523,0,0,1,9.048,13.9Zm1.184-5.421h0a5.628,5.628,0,0,0,1.679,2.411,6.709,6.709,0,0,0,1.538-2.411H10.231Zm3.182-3.938H2.245V0H13.413V4.537ZM3.463,2.662V3.718h8.73V2.662Zm0-1.812V1.858h8.73V.85Z" transform="translate(0 39.838)" fill="#fff" stroke="#fff" stroke-miterlimit="10" stroke-width="0.2"/>
    <path id="Fill_4" data-name="Fill 4" d="M.353,4.129H7.226a22.844,22.844,0,0,0,.23-2.852V0H8.764V1.025a21.8,21.8,0,0,1-.229,3.1h7.334v1.1H8.906a14.547,14.547,0,0,0,7.3,8.226l-.795.913A15.341,15.341,0,0,1,8.093,6.115a12.8,12.8,0,0,1-7.3,8.366L0,13.536a11.58,11.58,0,0,0,7.015-8.3H.353Z" transform="translate(20.519 39.286)" fill="#fff" stroke="#fff" stroke-miterlimit="10" stroke-width="0.2"/>
    <path id="Fill_7" data-name="Fill 7" d="M12.547,14.259H8.358c-1.289,0-1.943-.461-1.943-1.371a1.9,1.9,0,0,1,.476-1.118A16.077,16.077,0,0,1,8.747,9.563c.884-.946,1.889-1.921,2.987-2.9H6.68V5.594H13.5V6.6c-1.632,1.393-2.869,2.528-3.676,3.372A15.325,15.325,0,0,0,8.217,11.8a1.774,1.774,0,0,0-.424.883c0,.355.291.535.866.535h3.888a1.476,1.476,0,0,0,1.1-.394,6,6,0,0,0,.512-2.6l1.184.377c-.141,1.716-.432,2.765-.866,3.119A3.162,3.162,0,0,1,12.547,14.259Zm-11.31-.992H0V1.338H4.772v11.55H3.551v-.961H1.237v1.339Zm0-10.857v8.446H3.551V2.41ZM5.831,5.279h0L5,4.411A12.945,12.945,0,0,0,7.863,0L9.048.235a19.215,19.215,0,0,1-.884,1.876h6.8v1.1H7.51A14.207,14.207,0,0,1,5.832,5.278Z" transform="translate(41.637 39.224)" fill="#fff" stroke="#fff" stroke-miterlimit="10" stroke-width="0.2"/>
    <path id="Fill_9" data-name="Fill 9" d="M11.469,13.913H10.9l-.318-.946c.489.019.916.03,1.2.03a2.246,2.246,0,0,0,1.4-.3,1.9,1.9,0,0,0,.391-1.023c.035-.517.088-2.081.157-4.649H7.264A11.025,11.025,0,0,1,5.232,8.539l-.619-.9A7.282,7.282,0,0,0,7.6,5.041H6.256V0h7.7V5.041H8.712c-.2.358-.4.7-.617,1.025H14.95a61.584,61.584,0,0,1-.283,6.286,1.779,1.779,0,0,1-.777,1.229A5.6,5.6,0,0,1,11.469,13.913ZM7.4,2.946V4.127h5.407V2.946ZM7.4.9V2.11h5.407V.9ZM1.2,12.415H0V.8H4.577V12.084H3.411v-.819H1.2v1.149Zm0-10.572v8.382H3.411V1.843ZM11.858,12.21H6.185V8.3H7.351v2.962h4.507v.944ZM8.518,10.7h0l-.636-.709a4.838,4.838,0,0,0,2.192-2.552l1.007.14a5.193,5.193,0,0,1-.424.946,13.2,13.2,0,0,1,2.3,1.355l-.583.818a13.268,13.268,0,0,0-2.208-1.432A6.047,6.047,0,0,1,8.519,10.7Z" transform="translate(61.89 39.791)" fill="#fff" stroke="#fff" stroke-miterlimit="10" stroke-width="0.2"/>
    <path id="Fill_11" data-name="Fill 11" d="M5.089,13.441h0L4.135,12.7c2.826-1.255,4.282-3.29,4.33-6.05v-1.1H6.15V4.428H15.6V5.546H13.077v6.018c0,.45.208.679.618.679h.495a.591.591,0,0,0,.477-.189,4.834,4.834,0,0,0,.354-2.269l1.184.363a6.931,6.931,0,0,1-.531,2.725,1.579,1.579,0,0,1-1.219.41H13.288a1.428,1.428,0,0,1-1.112-.41,1.473,1.473,0,0,1-.389-1.056V5.546h-2.1v1.1a7.281,7.281,0,0,1-1.193,4.014,8.357,8.357,0,0,1-3.4,2.777ZM.372,11.628h0L0,10.478c.926-.228,1.729-.44,2.386-.63V5.878H.407V4.853H2.386V1.308H.159V.253H5.9V1.308H3.676V4.853H5.531V5.878H3.676V9.454c.618-.208,1.391-.489,2.3-.835v1.15a48.041,48.041,0,0,1-5.6,1.858ZM15.039,1.087H6.769V0h8.27V1.086Z" transform="translate(81.755 40.2)" fill="#fff" stroke="#fff" stroke-miterlimit="10" stroke-width="0.2"/>
    <path id="Fill_13" data-name="Fill 13" d="M8.729,14.416H7.457V10.164H7.262C6.136,11.752,3.936,13.151.724,14.322L0,13.267c3-.912,5.078-1.955,6.167-3.1H.442V9.107H7.457V7.72H5.778v-6.1H7.121A9.019,9.019,0,0,0,7.7,0L8.888.143a7.973,7.973,0,0,1-.6,1.48h2.156v6.1H8.729V9.107h7v1.057h-5.69A13.924,13.924,0,0,0,16.2,13.252l-.583,1.1c-3.132-1.068-5.385-2.478-6.7-4.191h-.2v4.252Zm-1.768-9.3V6.806H9.277V5.121Zm0-2.585v1.67H9.277V2.536Zm-2.155,6h0L4.488,7.374c-1.117.243-2.33.476-3.605.693l-.23-.724A13.011,13.011,0,0,0,2.986,4.3C2.1,4.484,1.3,4.637.6,4.757l-.2-.817c.387-.168,1.1-1.4,2.12-3.671L3.551.6A23.267,23.267,0,0,1,1.872,3.671c.587-.123,1.141-.25,1.643-.378.086-.174.337-.741.725-1.639l.971.251A17.105,17.105,0,0,1,2.261,6.949c.832-.161,1.511-.3,1.963-.394-.1-.318-.267-.774-.513-1.434l.919-.268a26.072,26.072,0,0,1,1.1,3.482l-.918.206Zm9.948-.1h0l-.264-1.071c-.878.222-2.008.466-3.357.725L10.9,7.374a12.434,12.434,0,0,0,2.191-3.01c-.766.167-1.456.3-2.049.41l-.194-.821c.328-.176.9-1.4,1.714-3.655L13.588.63a26.038,26.038,0,0,1-1.4,3.073l1.412-.33c.305-.689.543-1.262.707-1.7l.99.267a21.823,21.823,0,0,1-1.379,3.01l.689-.205a28.072,28.072,0,0,1,1.06,3.5l-.919.206ZM13.8,5.153a15.108,15.108,0,0,1-1.255,1.8L14.26,6.6C14.17,6.28,14.02,5.806,13.8,5.153Z" transform="translate(102.875 39.286)" fill="#fff" stroke="#fff" stroke-miterlimit="10" stroke-width="0.2"/>
    <path id="Fill_15" data-name="Fill 15" d="M8.411,13.722H7.1V8.144H0V7.058H7.1V1.1H.707V0H14.985V1.1H8.411V7.058h7.245V8.144H8.411v5.577ZM3.587,6.238h0A27.043,27.043,0,0,0,1.679,2.63l1.184-.52A36.088,36.088,0,0,1,4.772,5.718l-1.184.52Zm8.359-.063h0l-1.131-.52a21.137,21.137,0,0,0,2.067-3.623l1.166.488a19.4,19.4,0,0,1-2.1,3.655Z" transform="translate(123.993 39.98)" fill="#fff" stroke="#fff" stroke-miterlimit="10" stroke-width="0.2"/>
    <path id="Fill_16" data-name="Fill 16" d="M2.792,14.5H1.5V7.924h11.8v6.571h-1.29v-.788H2.792V14.5Zm0-5.485h0v3.609h9.224V9.012ZM14.03,7.5h0c-.229-.345-.669-.975-1.307-1.874-3.609.293-7.807.52-12.476.677L0,5.23C1.549,4.759,3.493,3,5.778,0L7.086.393A25.514,25.514,0,0,1,2.3,5.184c3.165-.116,6.412-.312,9.649-.584-.712-.894-1.408-1.695-2.068-2.379l1.148-.488a40.978,40.978,0,0,1,4.242,5.23L14.031,7.5Z" transform="translate(144.565 39.239)" fill="#fff" stroke="#fff" stroke-miterlimit="10" stroke-width="0.2"/>
    <path id="Fill_17" data-name="Fill 17" d="M0,14.67v-.081C0,6.569,6.515,0,15.428,0A16.808,16.808,0,0,1,25.475,2.741a3.069,3.069,0,0,1,1.346,2.5,3.131,3.131,0,0,1-3.2,3.063,3.236,3.236,0,0,1-1.975-.646,10.614,10.614,0,0,0-6.432-1.934,8.631,8.631,0,0,0-8.45,8.786v.08a8.624,8.624,0,0,0,8.912,8.947,10.655,10.655,0,0,0,6.1-1.692V17.813H17.4a2.727,2.727,0,0,1-2.816-2.659,2.76,2.76,0,0,1,2.816-2.7h7.4a3.147,3.147,0,0,1,3.237,3.1v6.851a4.161,4.161,0,0,1-2.27,3.95,20.194,20.194,0,0,1-10.3,2.821C6.306,29.178,0,23.012,0,14.67" transform="translate(0.976 0)" fill="#fff"/>
    <path id="Fill_18" data-name="Fill 18" d="M15.6,29.179a16.116,16.116,0,0,1-11.2-4.247A14.018,14.018,0,0,1,0,14.669v-.08a14.084,14.084,0,0,1,4.434-10.3A16.183,16.183,0,0,1,15.679,0a16.118,16.118,0,0,1,11.2,4.247,14.016,14.016,0,0,1,4.393,10.262v.08a14.085,14.085,0,0,1-4.435,10.3A16.184,16.184,0,0,1,15.6,29.179Zm0-23.456a8.613,8.613,0,0,0-8.827,8.786v.08a8.794,8.794,0,0,0,8.911,8.866,8.614,8.614,0,0,0,8.829-8.786v-.08A8.694,8.694,0,0,0,15.6,5.723Z" transform="translate(31.831 0)" fill="#fff"/>
    <path id="Fill_19" data-name="Fill 19" d="M0,3.1A3.148,3.148,0,0,1,3.237,0h.715A3.347,3.347,0,0,1,6.894,1.612l7.82,12.211,7.86-12.252A3.2,3.2,0,0,1,25.475,0h.714a3.148,3.148,0,0,1,3.237,3.1V25.512a3.218,3.218,0,0,1-6.432,0V11.446l-5.675,8.383a3.089,3.089,0,0,1-5.381,0l-5.59-8.262V25.591a3.1,3.1,0,0,1-3.195,3.023A3.061,3.061,0,0,1,0,25.591Z" transform="translate(66.765 0.322)" fill="#fff"/>
    <path id="Fill_20" data-name="Fill 20" d="M26.063,28.9a3.3,3.3,0,0,1-3.111-2.136l-1.975-4.433H8.029L5.97,26.962A3.164,3.164,0,0,1,2.985,28.9,2.913,2.913,0,0,1,0,26a3.224,3.224,0,0,1,.378-1.331L10.635,2.459A4.012,4.012,0,0,1,14.419,0H14.8a3.93,3.93,0,0,1,3.74,2.459L28.8,24.665a2.888,2.888,0,0,1,.337,1.25A2.994,2.994,0,0,1,26.063,28.9ZM14.5,7.537l-4.077,9.309H18.58Z" transform="translate(99.134 0.04)" fill="#fff"/>
    <path id="Fill_21" data-name="Fill 21" d="M1.219,26.4A3.055,3.055,0,0,1,0,24.019a3,3,0,0,1,3.069-2.98A3.012,3.012,0,0,1,5,21.682a6.363,6.363,0,0,0,3.909,1.412c2.523,0,4.036-1.412,4.036-4.677V3.1A3.147,3.147,0,0,1,16.184,0a3.147,3.147,0,0,1,3.237,3.1V18.7c0,3.346-1.009,5.843-2.775,7.537A10.783,10.783,0,0,1,9,28.856,12.808,12.808,0,0,1,1.219,26.4" transform="translate(128.938 0.242)" fill="#fff"/>
    <path id="Fill_22" data-name="Fill 22" d="M0,3.1A3.148,3.148,0,0,1,3.237,0,3.147,3.147,0,0,1,6.473,3.1V25.592a3.147,3.147,0,0,1-3.236,3.1A3.148,3.148,0,0,1,0,25.592Z" transform="translate(153.151 0.241)" fill="#fff"/>
  </g>
</svg>
