<svg id="Logo" xmlns="http://www.w3.org/2000/svg" width="142.735" height="26.252" viewBox="0 0 142.735 26.252">
  <path id="Fill_17" data-name="Fill 17" d="M0,13.2v-.073C0,5.911,5.862,0,13.88,0A15.122,15.122,0,0,1,22.92,2.466,2.761,2.761,0,0,1,24.13,4.714,2.817,2.817,0,0,1,21.255,7.47a2.911,2.911,0,0,1-1.777-.581,9.549,9.549,0,0,0-5.787-1.74,7.765,7.765,0,0,0-7.6,7.9v.072a7.759,7.759,0,0,0,8.018,8.05,9.586,9.586,0,0,0,5.484-1.522V16.026H15.658a2.453,2.453,0,0,1-2.534-2.392A2.483,2.483,0,0,1,15.658,11.2h6.656A2.831,2.831,0,0,1,25.227,14V20.16a3.743,3.743,0,0,1-2.042,3.554,18.169,18.169,0,0,1-9.266,2.538C5.673,26.252,0,20.7,0,13.2" transform="translate(0 0)" fill="#fff"/>
  <path id="Fill_18" data-name="Fill 18" d="M14.031,26.252A14.5,14.5,0,0,1,3.952,22.431,12.612,12.612,0,0,1,0,13.2v-.072A12.671,12.671,0,0,1,3.99,3.857,14.56,14.56,0,0,1,14.106,0a14.5,14.5,0,0,1,10.08,3.821,12.61,12.61,0,0,1,3.952,9.233v.072a12.672,12.672,0,0,1-3.99,9.269A14.56,14.56,0,0,1,14.031,26.252Zm0-21.1a7.749,7.749,0,0,0-7.942,7.9v.072A7.912,7.912,0,0,0,14.106,21.1a7.75,7.75,0,0,0,7.943-7.9v-.072A7.822,7.822,0,0,0,14.031,5.149Z" transform="translate(27.761 0)" fill="#fff"/>
  <path id="Fill_19" data-name="Fill 19" d="M0,2.792A2.832,2.832,0,0,1,2.912,0h.643A3.011,3.011,0,0,1,6.2,1.451l7.035,10.986L20.31,1.414A2.879,2.879,0,0,1,22.92,0h.643a2.832,2.832,0,0,1,2.912,2.792V22.953a2.9,2.9,0,0,1-5.787,0V10.3L15.582,17.84a2.779,2.779,0,0,1-4.841,0l-5.03-7.433V23.024a2.787,2.787,0,0,1-2.874,2.72A2.754,2.754,0,0,1,0,23.024Z" transform="translate(59.19 0.29)" fill="#fff"/>
  <path id="Fill_20" data-name="Fill 20" d="M23.449,26a2.965,2.965,0,0,1-2.8-1.921l-1.777-3.989H7.224l-1.853,4.17A2.846,2.846,0,0,1,2.686,26,2.62,2.62,0,0,1,0,23.388a2.9,2.9,0,0,1,.34-1.2L9.569,2.212A3.609,3.609,0,0,1,12.973,0h.341a3.535,3.535,0,0,1,3.364,2.212l9.229,19.978a2.6,2.6,0,0,1,.3,1.125A2.694,2.694,0,0,1,23.449,26ZM13.048,6.781,9.38,15.156h7.337Z" transform="translate(88.312 0.036)" fill="#fff"/>
  <path id="Fill_21" data-name="Fill 21" d="M1.1,23.75A2.748,2.748,0,0,1,0,21.61a2.7,2.7,0,0,1,2.761-2.681,2.71,2.71,0,0,1,1.74.579,5.724,5.724,0,0,0,3.517,1.27c2.27,0,3.631-1.27,3.631-4.208V2.792A2.832,2.832,0,0,1,14.561,0a2.832,2.832,0,0,1,2.912,2.792V16.824a9,9,0,0,1-2.5,6.781,9.7,9.7,0,0,1-6.883,2.356,11.523,11.523,0,0,1-7-2.212" transform="translate(115.127 0.218)" fill="#fff"/>
  <path id="Fill_22" data-name="Fill 22" d="M0,2.792A2.832,2.832,0,0,1,2.912,0,2.831,2.831,0,0,1,5.824,2.792V23.025a2.831,2.831,0,0,1-2.911,2.792A2.832,2.832,0,0,1,0,23.025Z" transform="translate(136.912 0.217)" fill="#fff"/>
</svg>
