<svg xmlns="http://www.w3.org/2000/svg" width="35" height="35" viewBox="0 0 35 35">
  <g id="Love_l_46" data-name="Love_l 46" transform="translate(0.153 -0.013)">
    <circle id="椭圆_2" data-name="椭圆 2" cx="17.5" cy="17.5" r="17.5" transform="translate(-0.153 0.013)" fill="#fff"/>
    <path id="Icon" d="M4.932,0A5.108,5.108,0,0,0,0,5.367c0,3.469,2.7,6.356,6.5,10.056.861.837,1.695,1.691,2.478,2.538.79-.854,1.623-1.707,2.477-2.538,3.808-3.7,6.5-6.588,6.5-10.056A5.108,5.108,0,0,0,13.03,0,5.14,5.14,0,0,0,9.42,1.561L8.981,2l-.439-.444A5.143,5.143,0,0,0,4.932,0" transform="translate(8.366 8.533)" fill="none" stroke="#afafaf" stroke-width="1"/>
  </g>
</svg>
