<svg xmlns="http://www.w3.org/2000/svg" width="56" height="56" viewBox="0 0 56 56">
  <g id="index_massage_icon" transform="translate(0.5 0.5)">
    <circle id="Oval" cx="27.5" cy="27.5" r="27.5" fill="none" stroke="#fff" stroke-miterlimit="10" stroke-width="1"/>
    <g id="Group_20" data-name="Group 20" transform="translate(17 8)">
      <path id="Fill_1" data-name="Fill 1" d="M10.749,11.287a.28.28,0,0,1,0-.06,8.635,8.635,0,0,1,.387-2.432l-.012,0c3.4-12.963-18.1-10.976-8.752,1.879a.27.27,0,0,0,.464-.045C7.458.508,6.064,15.311,5.587,18.942a.257.257,0,0,1-.027.085c-2.576,4.963-1.321,9.336,3.891,7.1a.27.27,0,0,0,.135-.364c-1.913-4.121-2.472-13.542,1.228-9.121a.269.269,0,0,0,.472-.205c-.2-1.641-.426-3.268-.536-5.153" transform="translate(5.387 6.639)" fill="#fff"/>
      <path id="Fill_14" data-name="Fill 14" d="M10.549,4.225a.2.2,0,0,0-.369-.039C9.447,5.375,9.008,9.818,7,8.043,6.183,7.316,4.127,3.112,4.477.232A.2.2,0,0,0,4.125.07C-.087,5.046,5.273,11.653,4.4,15.462a.289.289,0,0,1-.009.03C3.466,18.024.872,24.093.014,26.307a.2.2,0,0,0,.189.275H6.524a.2.2,0,0,0,.2-.182c.579-6.171,5.785-15.781,3.825-22.175" transform="translate(0 10.849)" fill="#fff" stroke="#fff" stroke-miterlimit="10" stroke-width="0.5"/>
      <path id="Fill_17" data-name="Fill 17" d="M5.068,21.774C8.9,6.14,10.722,12.443,2.987.1A.215.215,0,0,0,2.6.147c-.8,3.1,2.418,7.609.4,11.373l-.209.093C-3.589.191,3.315,17.466.831,21.651c-.076.129.051.288.2.288H4.859a.216.216,0,0,0,.208-.165" transform="translate(14.577 15.763)" fill="#fff" stroke="#fff" stroke-miterlimit="10" stroke-width="0.5"/>
      <path id="Fill_3" data-name="Fill 3" d="M2.147,5.06C4.336,2.407,3.45-1.793.228.829-.311,3.223.019,6.5,2.147,5.06" transform="translate(6.165 0.271)" fill="#fff"/>
      <path id="Fill_6" data-name="Fill 6" d="M.395,4.19c.717.4,2.6-1.244,2.877-2.419-1-4.279-4.422.268-2.877,2.419" transform="translate(10.141 1.075)" fill="#fff"/>
      <path id="Fill_8" data-name="Fill 8" d="M0,2.711C1.095,4.61,4.269.72,2.194.014,1.5-.155-.076,1.221,0,2.711" transform="translate(12.821 3.208)" fill="#fff"/>
      <path id="Fill_10" data-name="Fill 10" d="M.039,2.4c.558.6,2.554-.6,1.9-2.068C1.253-.821-.262,1.335.039,2.4" transform="translate(14.943 5.027)" fill="#fff"/>
      <path id="Fill_12" data-name="Fill 12" d="M.088,1.95c.728.58,2.426-.4,2.042-1.644C1.472-.722-.428,1.1.088,1.95" transform="translate(16.309 6.901)" fill="#fff"/>
    </g>
  </g>
</svg>
