<svg xmlns="http://www.w3.org/2000/svg" width="26.575" height="16" viewBox="0 0 26.575 16">
    <defs>
        <style>
            .cls-3,.cls-4{fill-rule:evenodd}.cls-3{fill:#fff}.cls-4{fill:#06326e}
        </style>
    </defs>
    <g id="mastercard-icon" transform="translate(-488.534 -673.709)">
        <path id="Path_137" data-name="Path 137" d="M501.828 687.636a7.856 7.856 0 0 0 5.329 2.073 8 8 0 0 0 0-16 7.852 7.852 0 0 0-5.329 2.074 8.007 8.007 0 0 0 0 11.853z" style="fill-rule:evenodd;fill:#fab31e"/>
        <path id="Path_138" data-name="Path 138" d="M504.4 680.865c-.027-.289-.082-.563-.137-.852H499.4a8.237 8.237 0 0 1 .22-.838h4.409c-.1-.288-.207-.576-.33-.851h-3.739c.138-.288.289-.577.454-.851h2.815a7.176 7.176 0 0 0-.6-.838h-1.607a7.958 7.958 0 0 1 .81-.852 8 8 0 1 0 0 11.853 7.7 7.7 0 0 0 .8-.838h-1.607a9.307 9.307 0 0 1-.6-.852h2.815a6.478 6.478 0 0 0 .467-.851h-3.747a9.029 9.029 0 0 1-.343-.838h4.409a8.812 8.812 0 0 0 .233-.851 8.367 8.367 0 0 0 .137-.852 8.187 8.187 0 0 0 .042-.838 8.444 8.444 0 0 0-.042-.851z" style="fill:#e40520;fill-rule:evenodd"/>
        <path id="Path_139" data-name="Path 139" class="cls-3" d="M514.051 683.57a.249.249 0 0 1 .247-.26.252.252 0 0 1 .261.26.261.261 0 0 1-.261.261.258.258 0 0 1-.247-.261zm.247.193a.193.193 0 1 0 0-.385.193.193 0 0 0 0 .385zm-.027-.083h-.055v-.22h.151c.028.014.028.042.028.069a.074.074 0 0 1-.042.055l.055.1h-.068l-.028-.082h-.041v-.041h.027c.014 0 .028 0 .028-.014s.014-.014.014-.028a.013.013 0 0 0-.014-.013c0-.014-.014 0-.028 0h-.027v.178z"/>
        <path id="Path_140" data-name="Path 140" class="cls-4" d="M499.123 684.024a2.564 2.564 0 0 1-.646.109c-.412 0-.659-.261-.659-.728a2.617 2.617 0 0 1 .027-.3l.055-.316.042-.26.37-2.253h.824l-.1.495h.522l-.124.824h-.521l-.22 1.345a.624.624 0 0 0-.014.138c0 .179.082.247.289.247a1.585 1.585 0 0 0 .26-.027l-.109.728z"/>
        <path id="Path_141" data-name="Path 141" class="cls-4" d="M501.787 684a3.211 3.211 0 0 1-.879.124 1.32 1.32 0 0 1-1.469-1.47c0-1.14.631-1.964 1.51-1.964a1.1 1.1 0 0 1 1.154 1.2 3.815 3.815 0 0 1-.1.81h-1.713a.382.382 0 0 0-.014.11c0 .385.261.577.756.577a2.059 2.059 0 0 0 .892-.206l-.137.824zm-.508-1.964v-.165a.38.38 0 0 0-.412-.425c-.275 0-.467.206-.549.59z"/>
        <path id="Path_142" data-name="Path 142" class="cls-4" d="M492.53 684.065h-.851l.494-3.118-1.112 3.118h-.591l-.069-3.1-.522 3.1h-.838l.673-4.051h1.25l.027 2.5.838-2.5h1.371z"/>
        <path id="Path_143" data-name="Path 143" class="cls-4" d="M494.6 682.595a.774.774 0 0 0-.165-.014c-.494 0-.741.193-.741.495a.31.31 0 0 0 .316.343c.412 0 .577-.343.59-.824zm.687 1.47h-.742l.014-.344a1.006 1.006 0 0 1-.906.4.834.834 0 0 1-.77-.907 1.467 1.467 0 0 1 .069-.426c.137-.508.646-.824 1.429-.837.1 0 .247 0 .384.013a.73.73 0 0 0 .027-.219c0-.22-.178-.289-.576-.289a2.287 2.287 0 0 0-.715.11l-.123.028-.055.013.124-.741a3.211 3.211 0 0 1 1-.179c.742 0 1.14.344 1.14.975a3.111 3.111 0 0 1-.041.646l-.192 1.181-.028.206-.014.165-.013.11-.014.1z"/>
        <path id="Path_144" data-name="Path 144" class="cls-4" d="M505.935 680.8a1.655 1.655 0 0 1 .769.22l.151-.879a1.939 1.939 0 0 0-.22-.082l-.344-.1a2.441 2.441 0 0 0-1.332.124 2.624 2.624 0 0 0-.508.439l-.11-.027-.879.618.042-.343h-.904l-.535 3.3h.865l.316-1.772s.123-.247.178-.33a.5.5 0 0 1 .481-.205h.069a4.342 4.342 0 0 0-.042.631 1.541 1.541 0 0 0 1.539 1.744 2.787 2.787 0 0 0 .755-.109l.151-.934a1.553 1.553 0 0 1-.728.22c-.508 0-.81-.385-.81-.99 0-.892.453-1.524 1.1-1.524z"/>
        <path id="Path_145" data-name="Path 145" class="cls-4" d="m513.227 680.013-.192 1.154a.889.889 0 0 0-.783-.467 1.3 1.3 0 0 0-1.14.755v-.013l-.549-.33.055-.343h-.92l-.522 3.3h.851l.289-1.772s.219-.247.274-.33a.543.543 0 0 1 .385-.206 2.975 2.975 0 0 0-.151.975c0 .825.426 1.374 1.057 1.374a1 1 0 0 0 .8-.371l-.041.33h.81l.659-4.052zm-1.057 3.269c-.289 0-.44-.22-.44-.646 0-.645.275-1.112.673-1.112.3 0 .453.234.453.646 0 .659-.274 1.112-.686 1.112z"/>
        <path id="Path_146" data-name="Path 146" class="cls-4" d="M508.2 682.595a.779.779 0 0 0-.165-.014c-.5 0-.742.193-.742.495a.311.311 0 0 0 .316.343c.412 0 .577-.343.591-.824zm.686 1.47h-.755l.027-.344a1.006 1.006 0 0 1-.906.4.836.836 0 0 1-.8-.907c0-.783.591-1.263 1.525-1.263.1 0 .247 0 .371.013a.847.847 0 0 0 .041-.219c0-.22-.179-.289-.591-.289a2.353 2.353 0 0 0-.714.11l-.11.028-.055.013.124-.741a3.217 3.217 0 0 1 1-.179c.741 0 1.126.344 1.126.975a2.39 2.39 0 0 1-.041.646l-.179 1.181-.027.206-.028.165-.014.11v.1z"/>
        <path id="Path_147" data-name="Path 147" class="cls-4" d="M497.09 681.469a4.107 4.107 0 0 1 .646.055l.123-.769c-.247-.028-.577-.069-.769-.069-.961 0-1.277.522-1.277 1.126a.938.938 0 0 0 .645.907c.344.165.4.192.4.343 0 .206-.179.33-.509.33a2.291 2.291 0 0 1-.782-.137l-.1.755.014.014.165.027a1.938 1.938 0 0 0 .22.041c.206.014.384.028.494.028.962 0 1.36-.371 1.36-1.1a.937.937 0 0 0-.646-.92c-.371-.165-.412-.193-.412-.344s.165-.288.426-.288z"/>
        <path id="Path_148" data-name="Path 148" class="cls-3" d="m507.088 679.876-.151.879a1.652 1.652 0 0 0-.769-.22c-.645 0-1.1.632-1.1 1.525 0 .618.3.988.811.988a1.67 1.67 0 0 0 .727-.206l-.151.921a2.862 2.862 0 0 1-.755.123c-.934 0-1.511-.673-1.511-1.758 0-1.442.8-2.458 1.937-2.458a1.716 1.716 0 0 1 .4.041l.344.083c.109.041.137.055.219.082z"/>
        <path id="Path_149" data-name="Path 149" class="cls-3" d="M504.314 680.48h-.082c-.289 0-.454.138-.715.536l.083-.508h-.783l-.536 3.3h.866c.315-2.019.4-2.362.81-2.362h.055a3.413 3.413 0 0 1 .33-.948l-.028-.014z"/>
        <path id="Path_150" data-name="Path 150" class="cls-3" d="M499.342 683.763a1.786 1.786 0 0 1-.618.109.635.635 0 0 1-.686-.727 2.2 2.2 0 0 1 .027-.289l.055-.329.041-.262.371-2.252h.852l-.1.495h.44l-.11.81h-.439l-.234 1.373a.507.507 0 0 0-.014.138c0 .164.083.233.289.233a.578.578 0 0 0 .233-.027l-.11.728z"/>
        <path id="Path_151" data-name="Path 151" class="cls-3" d="M496.033 681.551a.963.963 0 0 0 .645.921c.357.164.412.219.412.357 0 .206-.151.3-.494.3a2.545 2.545 0 0 1-.769-.124l-.124.756.041.013.151.028a.939.939 0 0 0 .234.027 3.112 3.112 0 0 0 .467.028c.906 0 1.332-.344 1.332-1.1a.914.914 0 0 0-.6-.92c-.371-.165-.413-.206-.413-.357 0-.179.152-.261.426-.261a5.457 5.457 0 0 1 .618.041l.124-.755a4.882 4.882 0 0 0-.755-.069c-.962 0-1.3.508-1.291 1.112z"/>
        <path id="Path_152" data-name="Path 152" class="cls-3" d="M513.667 683.8h-.811l.042-.316a1.03 1.03 0 0 1-.8.357c-.632 0-1.044-.535-1.044-1.36 0-1.1.646-2.032 1.4-2.032a.985.985 0 0 1 .824.453l.192-1.154h.852l-.659 4.052zm-1.264-.769c.4 0 .673-.467.673-1.113 0-.426-.151-.645-.453-.645-.385 0-.673.453-.673 1.1q0 .66.453.66z"/>
        <path id="Path_153" data-name="Path 153" class="cls-3" d="M501.979 683.735a2.818 2.818 0 0 1-.893.137 1.308 1.308 0 0 1-1.455-1.483c0-1.126.632-1.964 1.5-1.964a1.1 1.1 0 0 1 1.167 1.2 3.293 3.293 0 0 1-.11.824h-1.7a.282.282 0 0 0-.013.1c0 .385.26.577.755.577a1.893 1.893 0 0 0 .893-.206l-.138.824zm-.481-1.964v-.165a.379.379 0 0 0-.412-.425c-.274 0-.466.206-.549.59z"/>
        <path id="Path_154" data-name="Path 154" class="cls-3" d="M492.75 683.8h-.85l.494-3.118-1.112 3.118h-.591l-.069-3.09-.522 3.09h-.8l.673-4.052h1.236l.041 2.513.824-2.513h1.346z"/>
        <path id="Path_155" data-name="Path 155" class="cls-3" d="M494.879 682.334c-.083 0-.124-.014-.192-.014-.481 0-.728.179-.728.509a.289.289 0 0 0 .3.329c.357 0 .6-.329.618-.824zm.632 1.47h-.711l.014-.344a1.069 1.069 0 0 1-.906.4.8.8 0 0 1-.783-.893c0-.811.549-1.277 1.511-1.277.1 0 .219.014.357.027a.706.706 0 0 0 .027-.206c0-.219-.151-.3-.549-.3a2.829 2.829 0 0 0-.714.083l-.124.041-.082.013.123-.741a3.448 3.448 0 0 1 1.03-.165c.742 0 1.14.33 1.14.961a4.128 4.128 0 0 1-.068.66l-.193 1.167-.027.206-.014.165-.014.123-.013.083z"/>
        <path id="Path_156" data-name="Path 156" class="cls-3" d="M508.475 682.334c-.1 0-.137-.014-.192-.014-.494 0-.741.179-.741.509a.3.3 0 0 0 .315.329c.344 0 .605-.329.618-.824zm.632 1.47h-.714l.014-.344a1.07 1.07 0 0 1-.907.4.8.8 0 0 1-.782-.893c0-.811.549-1.277 1.51-1.277.1 0 .22.014.344.027a.9.9 0 0 0 .041-.206c0-.219-.151-.3-.55-.3a2.95 2.95 0 0 0-.728.083l-.109.041-.083.013.124-.741a3.443 3.443 0 0 1 1.03-.165c.741 0 1.126.33 1.126.961a2.941 2.941 0 0 1-.069.66l-.178 1.167-.028.206-.027.165-.014.123v.083z"/>
        <path id="Path_157" data-name="Path 157" class="cls-3" d="M511.414 680.48h-.082c-.288 0-.453.138-.714.536l.082-.508h-.783l-.522 3.3h.852c.316-2.019.4-2.362.81-2.362h.055a3.479 3.479 0 0 1 .33-.948l-.028-.014z"/>
    </g>
</svg>
