<svg xmlns="http://www.w3.org/2000/svg" width="7" height="13.93" viewBox="0 0 7 13.93">
  <path id="m1" d="M477.994,387.082v1.375a2.9,2.9,0,0,1,1.354.547,4.19,4.19,0,0,1,1,1.27l-1.368.765a1.83,1.83,0,0,0-1.613-1.122,1.477,1.477,0,0,0-1.024.365,1.174,1.174,0,0,0-.407.912,1.122,1.122,0,0,0,.33.828,4.773,4.773,0,0,0,1.3.764,13.077,13.077,0,0,1,1.4.726,3.742,3.742,0,0,1,.835.656,2.936,2.936,0,0,1,.793,2.069,3.313,3.313,0,0,1-.715,2.1,3.461,3.461,0,0,1-1.894,1.22v1.452h-1.227V399.6a3.731,3.731,0,0,1-2.1-.947,4.521,4.521,0,0,1-1.066-2.23l1.543-.323a3.608,3.608,0,0,0,.772,1.522,1.811,1.811,0,0,0,1.27.435,1.791,1.791,0,0,0,1.291-.5,1.681,1.681,0,0,0,.512-1.27,1.494,1.494,0,0,0-.428-1.115,3.964,3.964,0,0,0-.642-.459,11.023,11.023,0,0,0-1.084-.558,5.241,5.241,0,0,1-1.789-1.122,2.808,2.808,0,0,1-.519-2.771,2.572,2.572,0,0,1,.466-.789,2.9,2.9,0,0,1,.754-.614,4.059,4.059,0,0,1,1.017-.407v-1.375Z" transform="translate(-473.603 -387.082)" fill="#333"/>
</svg>
