<svg xmlns="http://www.w3.org/2000/svg" width="15" height="17.041" viewBox="0 0 15 17.041">
    <defs>
        <style>
            .cls-1{fill:#afafaf}
        </style>
    </defs>
    <g id="free_cancel-icon" transform="translate(-702.812 -305.135)">
        <path id="Path_45" data-name="Path 45" class="cls-1" d="M709.917 322.176c-.372-.053-.752-.077-1.116-.164a7.5 7.5 0 0 1-2.923-13.371 6.994 6.994 0 0 1 3.954-1.443c.257-.014.516 0 .774 0l.012-.048-1.21-1.154.819-.859L713 307.78l-2.644 2.773-.859-.816 1.128-1.186a6.145 6.145 0 1 0 4.569 9.878 5.943 5.943 0 0 0 1.228-4.532 6.116 6.116 0 0 0-2.322-4.097l.817-1.048a7.1 7.1 0 0 1 1.132 1.084 7.5 7.5 0 0 1-.03 9.7 7.352 7.352 0 0 1-4.593 2.552c-.224.036-.45.056-.675.083z"/>
        <path id="Path_46" data-name="Path 46" class="cls-1" d="M709.86 311.292h1.19v.366c0 .3 0 .3.287.372a1.862 1.862 0 0 1 1.081.7c.094.128.169.269.261.419l-1.008.468a1.726 1.726 0 0 0-1.932-.5.93.93 0 0 0-.231.127.405.405 0 0 0 .081.731 5.705 5.705 0 0 0 .986.212 5.976 5.976 0 0 1 1.368.324 1.637 1.637 0 0 1 .271 2.768 2.588 2.588 0 0 1-1.159.451v.762h-1.2c0-.2-.005-.389 0-.58 0-.109-.028-.151-.142-.169a2.317 2.317 0 0 1-1.669-1.007c-.066-.1-.118-.212-.175-.32a.872.872 0 0 1-.04-.108l1.08-.46a1.572 1.572 0 0 0 1.6.816 1.382 1.382 0 0 0 .832-.239.488.488 0 0 0-.1-.895 6.839 6.839 0 0 0-1.012-.241c-.378-.082-.769-.123-1.134-.241a1.348 1.348 0 0 1-1-1.342 1.451 1.451 0 0 1 .8-1.42 3.817 3.817 0 0 1 .805-.286c.128-.036.172-.079.164-.209-.012-.16-.004-.32-.004-.499z"/>
    </g>
</svg>
