<svg xmlns="http://www.w3.org/2000/svg" width="8.202" height="9.997" viewBox="0 0 8.202 9.997">
    <defs>
        <style>
            .cls-1{fill:#666}
        </style>
    </defs>
    <g id="person-icon" transform="translate(-379.981 -376.5)">
        <path id="Path_115" data-name="Path 115" class="cls-1" d="M385.484 380.393a1.947 1.947 0 1 0-1.947-1.947 1.949 1.949 0 0 0 1.947 1.947zm0-3.59a1.644 1.644 0 1 1-1.644 1.644 1.646 1.646 0 0 1 1.644-1.647z" transform="translate(-1.401)"/>
        <path id="Path_116" data-name="Path 116" class="cls-1" d="M384.7 384.2h-1.235a3.488 3.488 0 0 0-3.484 3.484v1.846h8.2v-1.846a3.488 3.488 0 0 0-3.481-3.484zm3.181 5.026h-7.6v-1.543a3.184 3.184 0 0 1 3.181-3.181h1.238a3.184 3.184 0 0 1 3.181 3.181z" transform="translate(0 -3.036)"/>
    </g>
</svg>
