<svg xmlns="http://www.w3.org/2000/svg" width="19.588" height="25.552" viewBox="0 0 19.588 25.552">
  <g id="icon_i-phone" data-name="icon/i-phone" transform="translate(-2.202 0.292)">
    <g id="tabbar_e_icon" transform="translate(2.5 0)">
      <g id="Group_2" data-name="Group 2">
        <path id="Shape" d="M10.028,22.659h0a3.337,3.337,0,0,1-.515-.042c-2.306-.4-7.845-1.412-7.9-1.422-.019-.007-1.847-.748-1.586-2.379.228-1.629,2.98-17.035,3.008-17.19A2.634,2.634,0,0,1,5.276,0a2.567,2.567,0,0,1,.435.038c1.893.327,7.743,1.378,7.8,1.388A2.3,2.3,0,0,1,15.232,4.17c-.353,2.183-2.836,16.1-2.941,16.69A2.345,2.345,0,0,1,10.028,22.659ZM6.141,18.65a.925.925,0,1,0,0,1.851.906.906,0,0,0,.926-.926A.926.926,0,0,0,6.141,18.65ZM3.794,3.41,1.447,16.633l10.181,1.818L14.009,5.228,3.794,3.41ZM7.511,1.984a.322.322,0,0,0-.08.633l3.405.563a.263.263,0,0,0,.051,0,.335.335,0,0,0,.312-.269.307.307,0,0,0-.232-.365l-3.4-.561A.263.263,0,0,0,7.511,1.984Z" transform="matrix(0.985, -0.174, 0.174, 0.985, 0, 2.654)" fill="none" stroke="#444" stroke-miterlimit="10" stroke-width="0.5"/>
        <path id="Fill_1" data-name="Fill 1" d="M2.727,1.551V7.726a.455.455,0,0,0,.909,0V1.551L5.587,3.5A.454.454,0,0,0,6.23,2.86L3.5.133a.438.438,0,0,0-.148-.1.457.457,0,0,0-.346,0,.45.45,0,0,0-.149.1L.133,2.86A.454.454,0,0,0,.776,3.5Z" transform="translate(12.726 16.362) rotate(180)" fill="#444"/>
      </g>
    </g>
  </g>
</svg>
