<svg xmlns="http://www.w3.org/2000/svg" width="11.96" height="12.228" viewBox="0 0 11.96 12.228">
  <g id="M" transform="translate(-105.116 -182.752)">
    <path id="路径_15" data-name="路径 15" d="M108.226,215.037c-1.508,0-3.11-.494-3.11-1.409v-1.544a.24.24,0,1,1,.481,0c0,.388,1,.928,2.63.928s2.63-.541,2.63-.928a.24.24,0,1,1,.481,0v1.544C111.336,214.543,109.734,215.037,108.226,215.037Zm-2.63-2.175v.766c0,.388,1,.929,2.63.929s2.63-.541,2.63-.929v-.766a5.8,5.8,0,0,1-5.259,0Z" transform="translate(0 -23.171)" fill="#333"/>
    <path id="路径_16" data-name="路径 16" d="M108.226,221.489c-1.508,0-3.11-.494-3.11-1.409v-1.544a.24.24,0,1,1,.481,0c0,.388,1,.929,2.63.929s2.63-.541,2.63-.929a.24.24,0,1,1,.481,0v1.544C111.336,220.995,109.734,221.489,108.226,221.489Zm-2.63-2.175v.766c0,.388,1,.929,2.63.929s2.63-.541,2.63-.929v-.766a5.8,5.8,0,0,1-5.259,0Z" transform="translate(0 -28.066)" fill="#333"/>
    <path id="路径_17" data-name="路径 17" d="M108.226,227.941c-1.508,0-3.11-.494-3.11-1.409v-1.544a.24.24,0,0,1,.481,0c0,.388,1,.929,2.63.929s2.63-.541,2.63-.929a.24.24,0,0,1,.481,0v1.544C111.336,227.447,109.734,227.941,108.226,227.941Zm-2.63-2.175v.766c0,.388,1,.929,2.63.929s2.63-.541,2.63-.929v-.766a5.8,5.8,0,0,1-5.259,0Z" transform="translate(0 -32.961)" fill="#333"/>
    <path id="路径_18" data-name="路径 18" d="M108.226,195.735c-1.508,0-3.11-.494-3.11-1.409v-1.544a.24.24,0,1,1,.481,0c0,.388,1,.929,2.63.929s2.63-.541,2.63-.929a.24.24,0,1,1,.481,0v1.544C111.336,195.241,109.734,195.735,108.226,195.735Zm-2.63-2.175v.765c0,.388,1,.929,2.63.929s2.63-.541,2.63-.929v-.765a5.8,5.8,0,0,1-5.259,0Z" transform="translate(0 -8.528)" fill="#333"/>
    <path id="路径_19" data-name="路径 19" d="M108.226,184.118c-1.508,0-3.11-.494-3.11-1.409s1.6-1.409,3.11-1.409,3.11.494,3.11,1.409S109.734,184.118,108.226,184.118Zm0-2.338c-1.629,0-2.63.541-2.63.929s1,.929,2.63.929,2.63-.541,2.63-.929S109.855,181.781,108.226,181.781Z" transform="translate(0 1.452)" fill="#333"/>
    <path id="路径_21" data-name="路径 21" d="M108.226,202.187c-1.508,0-3.11-.494-3.11-1.409v-1.544a.24.24,0,1,1,.481,0c0,.388,1,.928,2.63.928s2.63-.541,2.63-.928a.24.24,0,1,1,.481,0v1.544C111.336,201.693,109.734,202.187,108.226,202.187Zm-2.63-2.175v.766c0,.388,1,.929,2.63.929s2.63-.541,2.63-.929v-.766a5.8,5.8,0,0,1-5.259,0Z" transform="translate(0 -13.423)" fill="#333"/>
    <path id="路径_22" data-name="路径 22" d="M108.226,208.639c-1.508,0-3.11-.494-3.11-1.409v-1.544a.24.24,0,0,1,.481,0c0,.388,1,.929,2.63.929s2.63-.541,2.63-.929a.24.24,0,0,1,.481,0v1.544C111.336,208.145,109.734,208.639,108.226,208.639Zm-2.63-2.175v.766c0,.388,1,.928,2.63.928s2.63-.541,2.63-.928v-.766a5.8,5.8,0,0,1-5.259,0Z" transform="translate(0 -18.317)" fill="#333"/>
    <path id="路径_23" data-name="路径 23" d="M132.007,209.819c-1.508,0-3.11-.494-3.11-1.409s1.6-1.409,3.11-1.409,3.11.494,3.11,1.409S133.515,209.819,132.007,209.819Zm0-2.338c-1.629,0-2.63.541-2.63.929s1,.928,2.63.928,2.63-.541,2.63-.928S133.636,207.481,132.007,207.481Z" transform="translate(-18.041 -19.497)" fill="#333"/>
    <path id="路径_24" data-name="路径 24" d="M132.007,215.037c-1.508,0-3.11-.494-3.11-1.409v-1.544a.24.24,0,1,1,.481,0c0,.388,1,.928,2.63.928s2.63-.541,2.63-.928a.24.24,0,1,1,.481,0v1.544C135.117,214.543,133.515,215.037,132.007,215.037Zm-2.63-2.175v.766c0,.388,1,.929,2.63.929s2.63-.541,2.63-.929v-.766a5.8,5.8,0,0,1-5.259,0Z" transform="translate(-18.041 -23.171)" fill="#333"/>
    <path id="路径_25" data-name="路径 25" d="M132.007,221.489c-1.508,0-3.11-.494-3.11-1.409v-1.544a.24.24,0,1,1,.481,0c0,.388,1,.929,2.63.929s2.63-.541,2.63-.929a.24.24,0,1,1,.481,0v1.544C135.117,220.995,133.515,221.489,132.007,221.489Zm-2.63-2.175v.766c0,.388,1,.929,2.63.929s2.63-.541,2.63-.929v-.766a5.8,5.8,0,0,1-5.259,0Z" transform="translate(-18.041 -28.066)" fill="#333"/>
    <path id="路径_26" data-name="路径 26" d="M132.007,227.941c-1.508,0-3.11-.494-3.11-1.409v-1.544a.24.24,0,0,1,.481,0c0,.388,1,.929,2.63.929s2.63-.541,2.63-.929a.24.24,0,0,1,.481,0v1.544C135.117,227.447,133.515,227.941,132.007,227.941Zm-2.63-2.175v.766c0,.388,1,.929,2.63.929s2.63-.541,2.63-.929v-.766a5.8,5.8,0,0,1-5.259,0Z" transform="translate(-18.041 -32.961)" fill="#333"/>
  </g>
</svg>
