<svg xmlns="http://www.w3.org/2000/svg" width="100" height="99.934" viewBox="0 0 100 99.934">
    <defs>
        <style>
            .cls-1{fill:#231f20}
        </style>
    </defs>
    <g id="qrcode" transform="translate(172.855 -233.709)">
        <g id="Group_1640" data-name="Group 1640">
            <g id="Group_1639" data-name="Group 1639">
                <path id="Path_206" data-name="Path 206" class="cls-1" d="M-172.79 296.825v5.26h5.26v-10.52h-5.26z"/>
            </g>
        </g>
        <g id="Group_1642" data-name="Group 1642">
            <g id="Group_1641" data-name="Group 1641">
                <path id="Rectangle_329" data-name="Rectangle 329" class="cls-1" transform="translate(-172.79 265.267)" d="M0 0h5.26v5.26H0z"/>
            </g>
        </g>
        <g id="Group_1644" data-name="Group 1644">
            <g id="Group_1643" data-name="Group 1643">
                <path id="Rectangle_330" data-name="Rectangle 330" class="cls-1" transform="translate(-140.288 323.177)" d="M0 0h5.26v5.26H0z"/>
            </g>
        </g>
        <g id="Group_1646" data-name="Group 1646">
            <g id="Group_1645" data-name="Group 1645">
                <path id="Path_207" data-name="Path 207" class="cls-1" d="M-167.53 275.786v5.26h-5.26v5.26h5.26v5.26h10.519v5.26h5.26v-5.26h5.26v-10.52h-5.26v5.26h-10.519v-15.779h-5.26z"/>
            </g>
        </g>
        <g id="Group_1648" data-name="Group 1648">
            <g id="Group_1647" data-name="Group 1647">
                <path id="Path_208" data-name="Path 208" class="cls-1" d="M-157.011 265.267h-5.26v5.26h10.519v-5.26z"/>
            </g>
        </g>
        <g id="Group_1650" data-name="Group 1650">
            <g id="Group_1649" data-name="Group 1649">
                <path id="Path_209" data-name="Path 209" class="cls-1" d="M-133.342 307.549h2.826v-5.26h-5.652v5.26z"/>
            </g>
        </g>
        <g id="Group_1652" data-name="Group 1652">
            <g id="Group_1651" data-name="Group 1651">
                <path id="Rectangle_331" data-name="Rectangle 331" class="cls-1" transform="translate(-151.751 270.527)" d="M0 0h5.26v5.26H0z"/>
            </g>
        </g>
        <g id="Group_1654" data-name="Group 1654">
            <g id="Group_1653" data-name="Group 1653">
                <path id="Rectangle_332" data-name="Rectangle 332" class="cls-1" transform="translate(-114.933 291.565)" d="M0 0h5.26v5.26H0z"/>
            </g>
        </g>
        <g id="Group_1656" data-name="Group 1656">
            <g id="Group_1655" data-name="Group 1655">
                <path id="Rectangle_333" data-name="Rectangle 333" class="cls-1" transform="translate(-109.673 233.709)" d="M0 0h5.26v5.26H0z"/>
            </g>
        </g>
        <g id="Group_1658" data-name="Group 1658">
            <g id="Group_1657" data-name="Group 1657">
                <path id="Path_210" data-name="Path 210" class="cls-1" d="M-135.972 275.786v-5.26h5.26v-5.26h-5.26v-5.26h-5.26v5.26h-5.26v5.26h5.26v21.039h5.26v-10.519h5.26v-5.26z"/>
            </g>
        </g>
        <g id="Group_1660" data-name="Group 1660">
            <g id="Group_1659" data-name="Group 1659">
                <path id="Path_211" data-name="Path 211" class="cls-1" d="M-109.673 328.383h5.26v-5.26h-10.519v5.26z"/>
            </g>
        </g>
        <g id="Group_1662" data-name="Group 1662">
            <g id="Group_1661" data-name="Group 1661">
                <path id="Rectangle_334" data-name="Rectangle 334" class="cls-1" transform="translate(-120.193 233.709)" d="M0 0h5.26v5.26H0z"/>
            </g>
        </g>
        <g id="Group_1664" data-name="Group 1664">
            <g id="Group_1663" data-name="Group 1663">
                <path id="Path_212" data-name="Path 212" class="cls-1" d="M-116.248 275.786v-5.26h-5.26v-5.26h-5.26v10.519h-5.26v5.26h10.52v-5.26z"/>
            </g>
        </g>
        <g id="Group_1666" data-name="Group 1666">
            <g id="Group_1665" data-name="Group 1665">
                <path id="Rectangle_335" data-name="Rectangle 335" class="cls-1" transform="translate(-91.82 265.267)" d="M0 0h5.26v5.26H0z"/>
            </g>
        </g>
        <g id="Group_1668" data-name="Group 1668">
            <g id="Group_1667" data-name="Group 1667">
                <path id="Rectangle_336" data-name="Rectangle 336" class="cls-1" transform="translate(-146.34 291.565)" d="M0 0h5.26v5.26H0z"/>
            </g>
        </g>
        <g id="Group_1670" data-name="Group 1670">
            <g id="Group_1669" data-name="Group 1669">
                <path id="Path_213" data-name="Path 213" class="cls-1" d="M-120.193 260.007v-5.26h5.26v-5.26h10.519v-5.26h-5.26v-5.26h-5.26v5.26h-5.26v5.26h-5.26v5.26h-5.26v5.26h10.519z"/>
            </g>
        </g>
        <g id="Group_1672" data-name="Group 1672">
            <g id="Group_1671" data-name="Group 1671">
                <path id="Path_214" data-name="Path 214" class="cls-1" d="M-120.193 296.825v-5.26h5.26v-5.26h-10.519v5.26h-5.26v5.26h10.519z"/>
            </g>
        </g>
        <g id="Group_1674" data-name="Group 1674">
            <g id="Group_1673" data-name="Group 1673">
                <path id="Path_215" data-name="Path 215" class="cls-1" d="M-104.414 317.861V312.6h-10.519v-5.26h-5.26v5.26h-5.26v5.26h-10.519v5.26h15.779v-5.26h5.26v5.26h5.26v-5.26z"/>
            </g>
        </g>
        <g id="Group_1676" data-name="Group 1676">
            <g id="Group_1675" data-name="Group 1675">
                <path id="Path_216" data-name="Path 216" class="cls-1" d="M-125.452 238.968v-5.26h-10.519v5.26h-5.26v5.26h10.52v-5.26z"/>
            </g>
        </g>
        <g id="Group_1678" data-name="Group 1678">
            <g id="Group_1677" data-name="Group 1677">
                <path id="Rectangle_337" data-name="Rectangle 337" class="cls-1" transform="translate(-130.712 244.228)" d="M0 0h5.26v5.26H0z"/>
            </g>
        </g>
        <g id="Group_1680" data-name="Group 1680">
            <g id="Group_1679" data-name="Group 1679">
                <path id="Path_217" data-name="Path 217" class="cls-1" d="M-112.3 265.267h-5.26v15.779h10.519v-5.26h-5.26v-5.26h5.26v-5.26h5.26v-5.26h-5.26v-5.26h-5.26v10.519z"/>
            </g>
        </g>
        <g id="Group_1682" data-name="Group 1682">
            <g id="Group_1681" data-name="Group 1681">
                <path id="Rectangle_338" data-name="Rectangle 338" class="cls-1" transform="translate(-135.972 249.488)" d="M0 0h5.26v5.26H0z"/>
            </g>
        </g>
        <g id="Group_1684" data-name="Group 1684">
            <g id="Group_1683" data-name="Group 1683">
                <path id="Path_218" data-name="Path 218" class="cls-1" d="M-114.933 302.085v5.26h10.52v-5.26h10.519v-5.26h-15.779v5.26z"/>
            </g>
        </g>
        <g id="Group_1686" data-name="Group 1686">
            <g id="Group_1685" data-name="Group 1685">
                <path id="Rectangle_339" data-name="Rectangle 339" class="cls-1" transform="translate(-91.82 281.046)" d="M0 0h5.26v5.26H0z"/>
            </g>
        </g>
        <g id="Group_1688" data-name="Group 1688">
            <g id="Group_1687" data-name="Group 1687">
                <path id="Rectangle_340" data-name="Rectangle 340" class="cls-1" transform="translate(-109.673 286.306)" d="M0 0h5.26v5.26H0z"/>
            </g>
        </g>
        <g id="Group_1690" data-name="Group 1690">
            <g id="Group_1689" data-name="Group 1689">
                <path id="Path_219" data-name="Path 219" class="cls-1" d="M-91.264 270.527h-10.519v5.26h5.26v5.26h5.26v-10.52z"/>
            </g>
        </g>
        <g id="Group_1692" data-name="Group 1692">
            <g id="Group_1691" data-name="Group 1691">
                <path id="Rectangle_341" data-name="Rectangle 341" class="cls-1" transform="translate(-99.154 286.306)" d="M0 0h5.26v5.26H0z"/>
            </g>
        </g>
        <g id="Group_1694" data-name="Group 1694">
            <g id="Group_1693" data-name="Group 1693">
                <path id="Path_220" data-name="Path 220" class="cls-1" d="M-151.751 317.962h15.785v-21.143h-21.143v5.266h-5.161v5.259h5.161v5.26h-5.161v5.26h5.161v.1h.1v5.162h-5.259v10.519h5.259v-5.26h5.26v-10.423zm11.736-17.094v13.15h-13.149v-13.15z"/>
            </g>
        </g>
        <g id="Group_1696" data-name="Group 1696">
            <g id="Group_1695" data-name="Group 1695">
                <path id="Path_221" data-name="Path 221" class="cls-1" d="M-83.375 296.825h5.26v-5.26h-15.779v5.26h10.519z"/>
            </g>
        </g>
        <g id="Group_1698" data-name="Group 1698">
            <g id="Group_1697" data-name="Group 1697">
                <path id="Path_222" data-name="Path 222" class="cls-1" d="M-83.375 275.786h5.26v-10.519h-5.26v10.519z"/>
            </g>
        </g>
        <g id="Group_1700" data-name="Group 1700">
            <g id="Group_1699" data-name="Group 1699">
                <path id="Path_223" data-name="Path 223" class="cls-1" d="M-125.256 302.29h-5.26v10.519h5.26V302.29z"/>
            </g>
        </g>
        <g id="Group_1702" data-name="Group 1702">
            <g id="Group_1701" data-name="Group 1701">
                <path id="Rectangle_342" data-name="Rectangle 342" class="cls-1" transform="translate(-78.115 296.825)" d="M0 0h5.26v5.26H0z"/>
            </g>
        </g>
        <g id="Group_1704" data-name="Group 1704">
            <g id="Group_1703" data-name="Group 1703">
                <path id="Path_224" data-name="Path 224" class="cls-1" d="M-72.855 286.306v-5.26h-5.26v10.519h5.26z"/>
            </g>
        </g>
        <g id="Group_1706" data-name="Group 1706">
            <g id="Group_1705" data-name="Group 1705">
                <path id="Path_225" data-name="Path 225" class="cls-1" d="M-167.53 323.124h-5.26v10.519h5.26v-10.519z"/>
            </g>
        </g>
        <g id="Group_1708" data-name="Group 1708">
            <g id="Group_1707" data-name="Group 1707">
                <path id="Path_226" data-name="Path 226" class="cls-1" d="M-72.855 260.007v-26.3h-26.3v26.3zm-22.354-3.945v-18.409H-76.8v18.409z"/>
            </g>
        </g>
        <g id="Group_1710" data-name="Group 1710">
            <g id="Group_1709" data-name="Group 1709">
                <path id="Rectangle_343" data-name="Rectangle 343" class="cls-1" transform="translate(-91.264 241.598)" d="M0 0h10.519v10.519H0z"/>
            </g>
        </g>
        <g id="Group_1712" data-name="Group 1712">
            <g id="Group_1711" data-name="Group 1711">
                <path id="Path_227" data-name="Path 227" class="cls-1" d="M-72.855 307.344h-26.3v26.3h26.3zM-95.209 329.7v-18.411H-76.8V329.7z"/>
            </g>
        </g>
        <g id="Group_1714" data-name="Group 1714">
            <g id="Group_1713" data-name="Group 1713">
                <path id="Rectangle_344" data-name="Rectangle 344" class="cls-1" transform="translate(-91.264 315.234)" d="M0 0h10.519v10.52H0z"/>
            </g>
        </g>
        <g id="Group_1716" data-name="Group 1716">
            <g id="Group_1715" data-name="Group 1715">
                <path id="Path_228" data-name="Path 228" class="cls-1" d="M-172.855 233.709v26.3h26.3v-26.3zm22.353 3.944v18.409h-18.409v-18.409z"/>
            </g>
        </g>
        <g id="Group_1718" data-name="Group 1718">
            <g id="Group_1717" data-name="Group 1717">
                <path id="Rectangle_345" data-name="Rectangle 345" class="cls-1" transform="translate(-164.966 241.598)" d="M0 0h10.519v10.519H0z"/>
            </g>
        </g>
    </g>
</svg>
