<svg xmlns="http://www.w3.org/2000/svg" width="13.979" height="14.001" viewBox="0 0 13.979 14.001">
    <path d="M1068.675 260.627v-.689a.7.7 0 0 1 .692-.707.666.666 0 0 1 .7.668q.023 1.3.013 2.594a.674.674 0 0 1-.665.663q-1.295.016-2.589.009a.694.694 0 0 1 0-1.387c.32-.01.641 0 .961 0l.015-.044c-.1-.08-.194-.163-.3-.239a5.611 5.611 0 1 0 2.179 5.328 7.848 7.848 0 0 0 .036-1.389.733.733 0 0 1 .618-.825.705.705 0 0 1 .783.681 6.989 6.989 0 1 1-8.47-6.128 6.847 6.847 0 0 1 5.875 1.359z" transform="translate(-1057.185 -258.986)" style="fill:#d2750a"/>
</svg>
