<svg xmlns="http://www.w3.org/2000/svg" width="56" height="56" viewBox="0 0 56 56">
  <g id="index_rs_icon" transform="translate(0.5 0.5)">
    <circle id="Oval" cx="27.5" cy="27.5" r="27.5" fill="none" stroke="#fff" stroke-miterlimit="10" stroke-width="1"/>
    <g id="rs_icon">
      <path id="rs_icon-2" data-name="rs_icon" d="M3.387,29.5h-.6a.87.87,0,0,1-.856-.881v-10.6C.977,16.326,0,13.9,0,8.84V7.754A10.687,10.687,0,0,1,1.541,1.913,6.282,6.282,0,0,1,3.082.189,1.055,1.055,0,0,1,3.482.1c.577,0,.783.677.784,1.311V17.271a1.3,1.3,0,0,1-.023.239V28.624A.87.87,0,0,1,3.387,29.5Zm17.078-.021h-.81A1.177,1.177,0,0,1,18.5,28.292V15.573a1.19,1.19,0,0,1,.782-1.122V10.994c-1.524-.6-2.589-2.829-2.589-5.419C16.689,2.5,18.2,0,20.059,0S23.43,2.5,23.43,5.575c0,2.591-1.065,4.819-2.589,5.419V14.45a1.19,1.19,0,0,1,.781,1.123V28.292A1.177,1.177,0,0,1,20.464,29.484Zm-8.8-.138h-.811A1.177,1.177,0,0,1,9.7,28.154V15.278a1.188,1.188,0,0,1,.781-1.122v-2.4C9.6,11.127,8.108,10,8.108,9.555V1.329c0-.747.374-1.192,1-1.192h.413V8.718c0,.2.253.37.564.37s.563-.166.563-.37V.137h1.044V8.718c0,.2.253.37.564.37s.563-.166.563-.37V.137h.172a1.224,1.224,0,0,1,1.251,1.192V9.555c0,.445-1.378,1.553-2.2,2.174v2.426a1.188,1.188,0,0,1,.781,1.122V28.154A1.176,1.176,0,0,1,11.669,29.346Z" transform="translate(16 13)" fill="#fff"/>
      <path id="rs_icon-3" data-name="rs_icon" d="M3.387,29.5h-.6a.87.87,0,0,1-.856-.881v-10.6C.977,16.326,0,13.9,0,8.84V7.754A10.687,10.687,0,0,1,1.541,1.913,6.282,6.282,0,0,1,3.082.189,1.055,1.055,0,0,1,3.482.1c.577,0,.783.677.784,1.311V17.271a1.3,1.3,0,0,1-.023.239V28.624A.87.87,0,0,1,3.387,29.5Zm17.078-.021h-.81A1.177,1.177,0,0,1,18.5,28.292V15.573a1.19,1.19,0,0,1,.782-1.122V10.994c-1.524-.6-2.589-2.829-2.589-5.419C16.689,2.5,18.2,0,20.059,0S23.43,2.5,23.43,5.575c0,2.591-1.065,4.819-2.589,5.419V14.45a1.19,1.19,0,0,1,.781,1.123V28.292A1.177,1.177,0,0,1,20.464,29.484Zm-8.8-.138h-.811A1.177,1.177,0,0,1,9.7,28.154V15.278a1.188,1.188,0,0,1,.781-1.122v-2.4C9.6,11.127,8.108,10,8.108,9.555V1.329c0-.747.374-1.192,1-1.192h.413V8.718c0,.2.253.37.564.37s.563-.166.563-.37V.137h1.044V8.718c0,.2.253.37.564.37s.563-.166.563-.37V.137h.172a1.224,1.224,0,0,1,1.251,1.192V9.555c0,.445-1.378,1.553-2.2,2.174v2.426a1.188,1.188,0,0,1,.781,1.122V28.154A1.176,1.176,0,0,1,11.669,29.346Z" transform="translate(16 13)" fill="none"/>
      <path id="rs_icon-4" data-name="rs_icon" d="M3.387,29.5h-.6a.87.87,0,0,1-.856-.881v-10.6C.977,16.326,0,13.9,0,8.84V7.754A10.687,10.687,0,0,1,1.541,1.913,6.282,6.282,0,0,1,3.082.189,1.055,1.055,0,0,1,3.482.1c.577,0,.783.677.784,1.311V17.271a1.3,1.3,0,0,1-.023.239V28.624A.87.87,0,0,1,3.387,29.5Zm17.078-.021h-.81A1.177,1.177,0,0,1,18.5,28.292V15.573a1.19,1.19,0,0,1,.782-1.122V10.994c-1.524-.6-2.589-2.829-2.589-5.419C16.689,2.5,18.2,0,20.059,0S23.43,2.5,23.43,5.575c0,2.591-1.065,4.819-2.589,5.419V14.45a1.19,1.19,0,0,1,.781,1.123V28.292A1.177,1.177,0,0,1,20.464,29.484Zm-8.8-.138h-.811A1.177,1.177,0,0,1,9.7,28.154V15.278a1.188,1.188,0,0,1,.781-1.122v-2.4C9.6,11.127,8.108,10,8.108,9.555V1.329c0-.747.374-1.192,1-1.192h.413V8.718c0,.2.253.37.564.37s.563-.166.563-.37V.137h1.044V8.718c0,.2.253.37.564.37s.563-.166.563-.37V.137h.172a1.224,1.224,0,0,1,1.251,1.192V9.555c0,.445-1.378,1.553-2.2,2.174v2.426a1.188,1.188,0,0,1,.781,1.122V28.154A1.176,1.176,0,0,1,11.669,29.346Z" transform="translate(16 13)" fill="none" stroke="#fff" stroke-miterlimit="10" stroke-width="0.5"/>
    </g>
  </g>
</svg>
