<svg xmlns="http://www.w3.org/2000/svg" width="11.497" height="11.931" viewBox="0 0 11.497 11.931">
  <g id="组_178" data-name="组 178" transform="translate(-50.981 -677.124)">
    <g id="组_177" data-name="组 177" transform="translate(50.981 677.124)">
      <path id="路径_2" data-name="路径 2" d="M52.066,685.982a1.085,1.085,0,0,0-1.085,1.085v8.388a1.085,1.085,0,0,0,1.085,1.084h9.327a1.085,1.085,0,0,0,1.085-1.084v-8.388a1.085,1.085,0,0,0-1.085-1.085h-.38v.687a.832.832,0,1,1-1.663,0v-.687H54.108v.687a.832.832,0,1,1-1.663,0v-.687Zm.687,3.037h7.953a.415.415,0,0,1,.434.393v5.433a.414.414,0,0,1-.434.392H52.753a.414.414,0,0,1-.434-.392v-5.433A.415.415,0,0,1,52.753,689.019Z" transform="translate(-50.981 -684.608)" fill="#afafaf"/>
      <path id="路径_3" data-name="路径 3" d="M63.22,677.522v1.663a.4.4,0,1,0,.8,0v-1.663a.4.4,0,1,0-.8,0Z" transform="translate(-61.322 -677.124)" fill="#afafaf"/>
      <path id="路径_4" data-name="路径 4" d="M107.74,677.522v1.663a.4.4,0,1,0,.8,0v-1.663a.4.4,0,0,0-.8,0Z" transform="translate(-98.937 -677.124)" fill="#afafaf"/>
    </g>
  </g>
</svg>
