<svg xmlns="http://www.w3.org/2000/svg" xmlns:xlink="http://www.w3.org/1999/xlink" width="20" height="20" viewBox="0 0 20 20">
  <defs>
    <clipPath id="clip-path">
      <path id="Search" d="M18.1,19.675l-3.767-3.767a8.9,8.9,0,1,1,1.571-1.571L19.675,18.1A1.111,1.111,0,0,1,18.1,19.675ZM2.222,8.889A6.667,6.667,0,1,0,8.889,2.222,6.674,6.674,0,0,0,2.222,8.889Z" transform="translate(0 0)"/>
    </clipPath>
  </defs>
  <g id="Icons_Search" data-name="Icons / Search" transform="translate(0 0)">
    <g id="组_18" data-name="组 18">
      <path id="Search-2" data-name="Search" d="M18.1,19.675l-3.767-3.767a8.9,8.9,0,1,1,1.571-1.571L19.675,18.1A1.111,1.111,0,0,1,18.1,19.675ZM2.222,8.889A6.667,6.667,0,1,0,8.889,2.222,6.674,6.674,0,0,0,2.222,8.889Z" transform="translate(0 0)" fill="#fff"/>
    </g>
  </g>
</svg>
