<svg xmlns="http://www.w3.org/2000/svg" width="160" height="160" viewBox="0 0 160 160">
    <defs>
        <style>
            .cls-7{fill:#fff}
        </style>
    </defs>
    <g id="search_nothing-icon" transform="translate(-492.81 -144.892)">
        <path id="Path_174" data-name="Path 174" d="M652.81 224.89a80 80 0 1 1-80-80 80 80 0 0 1 80 80z" style="fill:#f3701e"/>
        <path id="Path_175" data-name="Path 175" d="M633.858 224.58c-11.994-12-50.314-50.316-50.468-50.464-.208-.22-.4-.451-.609-.665a42.473 42.473 0 0 0-60.066 60.064c.216.218.447.4.669.615.15.158 40.636 40.646 52.148 52.152a80.1 80.1 0 0 0 58.326-61.702z" transform="translate(17.393 16.056)" style="fill:#bfbfbf;mix-blend-mode:multiply;isolation:isolate"/>
        <g id="Group_1042" data-name="Group 1042" transform="translate(527.667 177.069)">
            <path id="Path_176" data-name="Path 176" d="M592.593 233.764a7.379 7.379 0 0 1 0 10.445 7.386 7.386 0 0 1-10.451 0l-29.87-29.875a7.385 7.385 0 0 1 0-10.447 7.391 7.391 0 0 1 10.449 0z" transform="translate(-470.6 -120.467)" style="fill:#0f303f"/>
            <path id="Path_177" data-name="Path 177" d="M564.109 198.825a11.589 11.589 0 0 1 0 16.385 11.579 11.579 0 0 1-16.383 0l-3.237-3.233a11.588 11.588 0 0 1 0-16.381 11.584 11.584 0 0 1 16.387 0z" transform="translate(-479.574 -129.952)" style="fill:#6b3b55"/>
            <path id="Path_178" data-name="Path 178" d="M544.2 196.068a9.775 9.775 0 0 0-1.375 1.73 9.894 9.894 0 0 1 12.261 1.371l2.764 2.762a9.9 9.9 0 0 1 1.371 12.257 9.762 9.762 0 0 0 1.733-1.377 9.888 9.888 0 0 0 0-13.988l-2.758-2.756a9.887 9.887 0 0 0-13.996.001z" transform="translate(-477.854 -128.99)" style="fill:#804665"/>
            <path id="Path_179" data-name="Path 179" d="M582.781 173.452a42.473 42.473 0 1 1-60.066 0 42.475 42.475 0 0 1 60.066 0z" transform="translate(-510.274 -161.013)" style="fill:#e05600"/>
            <path id="Path_180" data-name="Path 180" class="cls-7" d="M526.06 213.111a26.808 26.808 0 0 1-1.551-1.431 26.392 26.392 0 0 1 3.355-40.159 32.791 32.791 0 0 0-1.8 41.59z" transform="translate(-503.795 -150.547)"/>
            <g id="Group_1041" data-name="Group 1041">
                <path id="Path_181" data-name="Path 181" class="cls-7" d="M522.715 173.452a42.473 42.473 0 1 0 60.066 0 42.468 42.468 0 0 0-60.066 0zm52.234 52.238a31.4 31.4 0 1 1 0-44.41 31.408 31.408 0 0 1 0 44.41z" transform="translate(-510.274 -161.013)"/>
            </g>
            <path id="Path_182" data-name="Path 182" d="M523.6 174.335a38.226 38.226 0 1 0 54.06 0 38.225 38.225 0 0 0-54.06 0zm49.232 49.236a31.4 31.4 0 1 1 0-44.41 31.408 31.408 0 0 1-.002 44.41z" transform="translate(-508.154 -158.894)" style="fill:#e8e8e8"/>
            <path id="Path_183" data-name="Path 183" d="M584.44 235.668a2.023 2.023 0 0 1 0 2.864 2.02 2.02 0 0 1-2.868 0l-29.426-29.422a2.031 2.031 0 0 1 0-2.868 2.031 2.031 0 0 1 2.868 0z" transform="translate(-469.162 -116.557)" style="fill:#4b4b55"/>
            <path id="Path_184" data-name="Path 184" d="M526.807 230.3a40.058 40.058 0 0 1 22.893-68.06 40.07 40.07 0 1 0 7.3 79.718 39.959 39.959 0 0 1-30.193-11.658z" transform="translate(-509.136 -159.791)" style="fill:#d1d1d1"/>
        </g>
    </g>
</svg>
