<svg xmlns="http://www.w3.org/2000/svg" width="56" height="56" viewBox="0 0 56 56">
  <g id="index_shipping_icon" transform="translate(0.5 0.5)">
    <circle id="Oval" cx="27.5" cy="27.5" r="27.5" fill="none" stroke="#fff" stroke-miterlimit="10" stroke-width="1"/>
    <path id="Shape" d="M24.843,26.385A4.549,4.549,0,0,1,21.5,24.98a4.676,4.676,0,0,1-1.386-3.391h-7.1a4.674,4.674,0,0,1-1.386,3.391,4.548,4.548,0,0,1-3.345,1.406A4.548,4.548,0,0,1,4.936,24.98a4.673,4.673,0,0,1-1.387-3.391H2.366c-.033,0-.162,0-.416.009-.119,0-.22,0-.3,0s-.137,0-.173,0l-.416-.038a1.023,1.023,0,0,1-.435-.112c-.088-.058-.19-.131-.3-.216a.71.71,0,0,1-.25-.347,1.534,1.534,0,0,1-.074-.5,1.167,1.167,0,0,1,.351-.843,1.135,1.135,0,0,1,.832-.356v-6c0-.111,0-.35-.009-.656-.006-.336-.006-.576,0-.712s.022-.356.046-.647a3.131,3.131,0,0,1,.121-.693A3.349,3.349,0,0,1,1.6,9.914a2.6,2.6,0,0,1,.416-.562L5.675,5.64a2.852,2.852,0,0,1,.933-.6A2.838,2.838,0,0,1,7.69,4.8h2.957V1.2A1.164,1.164,0,0,1,11,.356,1.133,1.133,0,0,1,11.83,0H30.758a1.133,1.133,0,0,1,.832.356,1.167,1.167,0,0,1,.351.843V20.389a1.534,1.534,0,0,1-.074.5.715.715,0,0,1-.25.347c-.123.091-.222.162-.3.216a1.023,1.023,0,0,1-.435.112l-.416.038c-.037,0-.095,0-.173,0s-.179,0-.3,0c-.253-.007-.382-.009-.416-.009a4.674,4.674,0,0,1-1.386,3.391A4.548,4.548,0,0,1,24.843,26.385Zm0-7.2a2.267,2.267,0,0,0-1.664.713,2.375,2.375,0,0,0,0,3.373,2.3,2.3,0,0,0,3.327,0,2.377,2.377,0,0,0,0-3.373A2.266,2.266,0,0,0,24.843,19.189Zm-16.562,0a2.267,2.267,0,0,0-1.664.713,2.377,2.377,0,0,0,0,3.373,2.3,2.3,0,0,0,3.327,0,2.375,2.375,0,0,0,0-3.373A2.266,2.266,0,0,0,8.281,19.189ZM7.727,7.2a.551.551,0,0,0-.407.168l-3.6,3.654a.569.569,0,0,0-.167.413v.562h7.1V7.2Z" transform="translate(11 14)" fill="#fff"/>
  </g>
</svg>
