<svg xmlns="http://www.w3.org/2000/svg" width="11.744" height="10" viewBox="0 0 11.744 10">
    <path d="M389.357 335.779h5.361a.977.977 0 0 0 .928-.669l.948-2.843a.979.979 0 0 0-.929-1.288H388l-.743-2.228H384.9v.345h2.1l.7 2.11 1.425 4.275a.9.9 0 0 0-.691.87.916.916 0 0 0 .915.915h.045a.9.9 0 0 0-.217.57.915.915 0 1 0 1.83 0 .9.9 0 0 0-.217-.57h3.8a.9.9 0 0 0-.217.57.915.915 0 1 0 1.83 0 .9.9 0 0 0-.781-.888v-.028h-6.077a.57.57 0 0 1 0-1.141zm3.069-2.354v-2.1h2.209l-.332 2.1zm1.822.345-.263 1.665h-1.559v-1.665zm-2.167-.345h-1.876l-.332-2.1h2.208zm0 .345v1.665h-1.559l-.263-1.665zm-1.908 1.665h-.692l-.554-1.665h.983zm5.146-.434a.634.634 0 0 1-.6.434h-.383l.263-1.665h1.132zm.861-3.414a.625.625 0 0 1 .087.571l-.422 1.267h-1.192l.332-2.1h.681a.627.627 0 0 1 .514.262zm-6.656-.263.332 2.1h-1.044l-.7-2.1zm1.146 6.512a.57.57 0 1 1-.57-.57.571.571 0 0 1 .57.569zm5.2 0a.57.57 0 1 1-.57-.57.571.571 0 0 1 .569.569z" transform="translate(-384.901 -328.75)" style="fill:#666"/>
</svg>
