<svg xmlns="http://www.w3.org/2000/svg" width="12" height="12.5" viewBox="0 0 12 12.5">
  <g id="_474" data-name="474" transform="translate(-100.75 -24.25)">
    <path id="路径_10" data-name="路径 10" d="M568.167,136.888h10.625c0-.361.013-.722.027-1.083H568.167l1.034-1.034a.541.541,0,1,0-.766-.766l-1.958,1.958a.543.543,0,0,0-.117.59.534.534,0,0,0,.117.176l1.958,1.959a.541.541,0,1,0,.766-.766Z" transform="translate(-33.097 603.069) rotate(-90)" fill="#333"/>
    <path id="路径_11" data-name="路径 11" d="M568.167,136.888h10.625c0-.361.013-.722.027-1.083H568.167l1.034-1.034a.541.541,0,1,0-.766-.766l-1.958,1.958a.543.543,0,0,0-.117.59.534.534,0,0,0,.117.176l1.958,1.959a.541.541,0,1,0,.766-.766Z" transform="translate(246.597 -542.069) rotate(90)" fill="#333"/>
  </g>
</svg>
