<svg xmlns="http://www.w3.org/2000/svg" width="12.837" height="12.838" viewBox="0 0 12.837 12.838">
  <path id="Star100" d="M12.547,5.853a1.022,1.022,0,0,0,.242-1.024.962.962,0,0,0-.772-.68L8.841,3.668A.191.191,0,0,1,8.7,3.559l-1.42-3a.94.94,0,0,0-1.717,0l-1.421,3A.191.191,0,0,1,4,3.668L.82,4.15a.962.962,0,0,0-.772.68A1.022,1.022,0,0,0,.29,5.854l2.3,2.337a.205.205,0,0,1,.055.177l-.543,3.3a1.014,1.014,0,0,0,.381.977.917.917,0,0,0,1.008.076l2.84-1.558a.184.184,0,0,1,.178,0l2.84,1.558a.922.922,0,0,0,1.008-.077,1.014,1.014,0,0,0,.381-.977l-.543-3.3a.205.205,0,0,1,.055-.177Z" fill="#f80"/>
</svg>
