<svg xmlns="http://www.w3.org/2000/svg" width="20.073" height="21.457" viewBox="0 0 20.073 21.457">
  <path id="ticket_S_BL" d="M8.7,20h0l-.745-.8a1.417,1.417,0,0,0,0-1.906,1.2,1.2,0,0,0-1.782,0l-.889-.951.03-.032a1.414,1.414,0,0,0-.03-1.905A1.2,1.2,0,0,0,3.5,14.44l-.889-.95.03-.032a1.416,1.416,0,0,0-.03-1.905,1.2,1.2,0,0,0-1.782.032L0,10.7,1.026,9.6,8.98,1.1,10.006,0l.829.887a1.409,1.409,0,0,0,0,1.81,1.226,1.226,0,0,0,.932.44,1.211,1.211,0,0,0,.846-.35l.894.956a1.414,1.414,0,0,0,.04,1.858,1.2,1.2,0,0,0,1.737.041l.894.956A1.406,1.406,0,0,0,15.939,8l.785.779A1.194,1.194,0,0,0,17.956,8.5l.747.8-.7.751-7.954,8.5L8.7,20ZM12.211,6.429h-.005l-2.321.122a.094.094,0,0,0-.068.036L7.311,9.723a.106.106,0,0,0-.016.1.1.1,0,0,0,.078.064L9.1,10.1a.1.1,0,0,1,.077.06.107.107,0,0,1-.009.1L6.951,13.629a.1.1,0,0,0-.008.1.1.1,0,0,0,.087.058.09.09,0,0,0,.06-.024l4.448-3.915a.105.105,0,0,0,.032-.1.1.1,0,0,0-.074-.076L9.5,9.25a.1.1,0,0,1-.074-.076.1.1,0,0,1,.032-.1l2.81-2.461A.1.1,0,0,0,12.3,6.5.1.1,0,0,0,12.211,6.429Z" transform="translate(0.684 0.732)" fill="#26bec9" stroke="rgba(0,0,0,0)" stroke-miterlimit="10" stroke-width="1"/>
</svg>
