<svg id="time-icon-s" xmlns="http://www.w3.org/2000/svg" width="9.254" height="11" viewBox="0 0 9.254 11">
    <defs>
        <style>
            .cls-1{fill:#fff}
        </style>
    </defs>
    <path id="Path_200" data-name="Path 200" class="cls-1" d="M219.351 255.506a4.639 4.639 0 0 0-1.565-2.728l.348-.5a.427.427 0 0 0-.7-.49l-.348.5a4.581 4.581 0 0 0-2.672-.592l-.15-.846.406-.071a.428.428 0 0 0-.148-.842l-1.654.293a.427.427 0 0 0 .1.848.19.19 0 0 0 .043-.008l.406-.07.15.846a4.626 4.626 0 1 0 5.779 3.66zm-3.9 4.515a3.772 3.772 0 1 1 3.059-4.37 3.777 3.777 0 0 1-3.061 4.37z" transform="translate(-210.167 -249.934)"/>
    <path id="Path_201" data-name="Path 201" class="cls-1" d="M217.91 255.468a.424.424 0 0 1 .1.588l-1.347 1.925a.423.423 0 0 1-.595.072.418.418 0 0 1-.1-.556l1.347-1.925a.423.423 0 0 1 .588-.1z" transform="translate(-211.686 -251.377)"/>
</svg>
