<svg xmlns="http://www.w3.org/2000/svg" width="11.402" height="12" viewBox="0 0 11.402 12">
    <defs>
        <style>
            .cls-1{fill:#666}
        </style>
    </defs>
    <g id="delect-icon" transform="translate(-689.761 -491.297)">
        <path id="Path_128" data-name="Path 128" class="cls-1" d="M700.929 493.114a.725.725 0 0 0-.291-.057c-.941-.005-1.881-.006-2.822-.008h-.163v-.555a1.165 1.165 0 0 0-1.173-1.191q-1.021-.013-2.042 0a1.153 1.153 0 0 0-1.159 1.029 6.23 6.23 0 0 0 0 .717h-.179l-2.822.006c-.319 0-.519.167-.522.435s.2.441.526.442h.561c.078 0 .114.018.118.1.013.283.035.566.053.848l.2 3.116c.078 1.185.166 2.368.234 3.553a1.788 1.788 0 0 0 1.768 1.737q2.247.017 4.494 0a1.778 1.778 0 0 0 1.768-1.692l.163-2.583.306-4.962c.006-.1.041-.123.132-.12.219 0 .439.005.657 0a.432.432 0 0 0 .408-.344.426.426 0 0 0-.215-.471zm-6.782-.6a.267.267 0 0 1 .295-.3c.242-.005.483 0 .726 0h1.219c.316 0 .391.073.391.384v.447h-2.631c-.001-.189-.003-.362-.001-.535zm4.868 2.634-.182 2.9c-.074 1.18-.143 2.361-.223 3.541a.908.908 0 0 1-.954.831H693.3a.919.919 0 0 1-.993-.949q-.141-2.426-.29-4.854-.075-1.257-.145-2.516v-.137h7.214c-.026.406-.048.793-.072 1.18z"/>
        <path id="Path_129" data-name="Path 129" class="cls-1" d="M693.855 502.037a.511.511 0 1 0 1.021.005v-5.34a1.028 1.028 0 0 0-.014-.222.51.51 0 0 0-1.008.122v2.718c0 .906-.003 1.812.001 2.717z" transform="translate(-.633 -1.272)"/>
        <path id="Path_130" data-name="Path 130" class="cls-1" d="M695.918 502.168a.51.51 0 0 0 .567.383.518.518 0 0 0 .437-.53v-5.37a.514.514 0 1 0-1.023 0v5.324a.754.754 0 0 0 .019.193z" transform="translate(-.95 -1.272)"/>
        <path id="Path_131" data-name="Path 131" class="cls-1" d="M697.964 502.167a.51.51 0 0 0 .567.384.516.516 0 0 0 .437-.529v-5.371a.514.514 0 1 0-1.023 0v5.323a.752.752 0 0 0 .019.193z" transform="translate(-1.267 -1.272)"/>
    </g>
</svg>
