<svg xmlns="http://www.w3.org/2000/svg" width="49.418" height="16" viewBox="0 0 49.418 16">
    <defs>
        <style>
            .cls-1{isolation:isolate}
        </style>
    </defs>
    <g id="visa-icon" transform="translate(-381.083 -674.307)">
        <g id="形状_1" data-name="形状 1" class="cls-1">
            <g id="形状_1-2" data-name="形状 1">
                <g id="Group_935" data-name="Group 935">
                    <path id="Path_135" data-name="Path 135" d="m401.054 674.584-2.515 15.457h4.024l2.515-15.457zm-5.9 0-3.837 10.631-.453-2.289-.1-.513a12.824 12.824 0 0 0-3.57-4.525 16.035 16.035 0 0 0-1.791-1.239l3.487 13.392h4.193l6.4-15.457zm15.7 4.291c0-1.748 3.919-1.523 5.642-.574l.574-3.32a11.623 11.623 0 0 0-3.62-.674c-2 0-6.739.873-6.739 5.117 0 3.994 5.566 4.043 5.566 6.14s-4.992 1.722-6.64.4l-.6 3.47a11.278 11.278 0 0 0 4.543.873c2.746 0 6.889-1.423 6.889-5.292.005-4.015-5.611-4.393-5.611-6.14zm16.421-4.291h-3.235a1.85 1.85 0 0 0-1.858 1.152l-6 14.3h4.194l.839-2.3h5.116l.472 2.3h3.7zm-4.9 9.989 2.115-5.784 1.189 5.784z" style="fill-rule:evenodd;fill:#005bac"/>
                </g>
            </g>
        </g>
        <g id="形状_1-3" data-name="形状 1" class="cls-1">
            <g id="形状_1-4" data-name="形状 1">
                <g id="Group_936" data-name="Group 936">
                    <path id="Path_136" data-name="Path 136" d="M389.564 676.039a1.746 1.746 0 0 0-1.945-1.4h-6.46l-.076.262a16.012 16.012 0 0 1 6.085 3.005 12.075 12.075 0 0 1 3.776 5.094z" style="fill:#f6ac1d;fill-rule:evenodd"/>
                </g>
            </g>
        </g>
    </g>
</svg>
